<svg xmlns="http://www.w3.org/2000/svg" xmlns:xlink="http://www.w3.org/1999/xlink" width="1584" zoomAndPan="magnify" viewBox="0 0 1188 503.999982" height="672" preserveAspectRatio="xMidYMid meet" version="1.0"><defs><g/><clipPath id="af74bd5d56"><path d="M 57 60 L 402 60 L 402 436.734375 L 57 436.734375 Z M 57 60 " clip-rule="nonzero"/></clipPath><clipPath id="0c1faa533e"><rect x="0" width="660" y="0" height="256"/></clipPath><clipPath id="b483efb744"><rect x="0" width="598" y="0" height="71"/></clipPath></defs><g clip-path="url(#af74bd5d56)"><path fill="#381114" d="M 190.664062 60.605469 C 189.980469 61.289062 190.339844 62.933594 191.816406 65.851562 C 193.570312 69.328125 195.007812 70.789062 196.207031 70.332031 C 197.355469 69.886719 197.277344 68.4375 195.960938 65.816406 C 193.769531 61.449219 191.777344 59.492188 190.664062 60.605469 M 258.210938 66.613281 C 255.722656 70.03125 255.070312 71.574219 255.242188 73.644531 C 255.703125 79.183594 262.898438 72.761719 262.917969 66.800781 C 262.921875 65.769531 261.558594 64.453125 260.460938 64.425781 C 260.105469 64.417969 259.09375 65.402344 258.210938 66.613281 M 148.828125 74.78125 C 147.425781 76.183594 147.523438 78.191406 149.0625 79.730469 C 150.609375 81.277344 151.609375 81.335938 152.976562 79.96875 C 154.738281 78.203125 154.25 75.71875 151.902344 74.503906 C 150.046875 73.542969 150.066406 73.542969 148.828125 74.78125 M 198.355469 75.824219 C 198.125 76.542969 199.023438 78.707031 201.257812 82.832031 C 204.617188 89.03125 207.511719 92.933594 208.75 92.933594 C 209.621094 92.933594 210.542969 91.332031 210.542969 89.808594 C 210.542969 87.703125 203.640625 76.324219 201.75 75.3125 C 200.171875 74.46875 198.714844 74.6875 198.355469 75.824219 M 158.167969 84.113281 C 157.59375 84.683594 157.125 85.601562 157.125 86.148438 C 157.125 89.152344 185.757812 118.757812 191.152344 121.328125 C 193.308594 122.359375 194.71875 121.507812 194.210938 119.480469 C 193.359375 116.089844 186.613281 107.839844 175.332031 96.398438 C 166.515625 87.453125 163.636719 84.917969 161.074219 83.847656 C 159.332031 83.121094 159.144531 83.136719 158.167969 84.113281 M 252.105469 85.105469 C 250.972656 85.804688 247.15625 96.960938 246.226562 102.28125 C 245.324219 107.441406 246.402344 109.839844 248.992188 108.453125 C 252.96875 106.324219 258.1875 88.976562 255.738281 86.023438 C 255.03125 85.171875 252.878906 84.628906 252.105469 85.105469 M 327.078125 92.359375 C 322.769531 94.554688 302.941406 113.074219 295.855469 121.519531 C 292.347656 125.699219 289.371094 130.417969 289.371094 131.792969 C 289.371094 132.8125 291.308594 133.410156 292.785156 132.847656 C 293.558594 132.554688 298.535156 128.0625 303.839844 122.863281 C 309.144531 117.667969 317.132812 109.914062 321.59375 105.636719 C 329.078125 98.457031 331.890625 95.175781 331.894531 93.617188 C 331.894531 92.820312 330.441406 91.375 329.632812 91.375 C 329.289062 91.375 328.136719 91.820312 327.078125 92.359375 M 267.472656 97.371094 C 263.578125 99.484375 264.910156 103.824219 269.453125 103.824219 C 271.027344 103.824219 273.292969 101.683594 273.292969 100.191406 C 273.292969 98.855469 271.078125 96.554688 269.816406 96.582031 C 269.304688 96.59375 268.25 96.949219 267.472656 97.371094 M 202.886719 101.464844 C 199.691406 104.15625 199.976562 108.84375 203.558594 112.425781 C 205.492188 114.359375 206.164062 114.714844 207.894531 114.714844 C 209.339844 114.714844 210.410156 114.320312 211.53125 113.378906 C 216.335938 109.335938 213.453125 100.9375 207.046875 100.324219 C 204.882812 100.117188 204.300781 100.273438 202.886719 101.464844 M 143.828125 109.507812 C 142.085938 110.234375 141.050781 112.148438 141.050781 114.621094 C 141.050781 119.363281 146.664062 122.230469 150.128906 119.25 C 152.703125 117.035156 152.273438 111.992188 149.351562 110.167969 C 147.996094 109.324219 145.09375 108.976562 143.828125 109.507812 M 263.109375 130.007812 C 262.929688 130.476562 263.03125 131.109375 263.335938 131.414062 C 264.125 132.203125 265.621094 131.480469 265.417969 130.410156 C 265.1875 129.214844 263.523438 128.925781 263.109375 130.007812 M 158.507812 133.210938 C 158.320312 133.402344 158.164062 134.234375 158.164062 135.058594 C 158.164062 136.4375 158.523438 136.730469 162.441406 138.550781 C 171.78125 142.894531 176.3125 143.691406 176.3125 140.984375 C 176.3125 139.488281 174.804688 138.078125 171.054688 136.0625 C 166.296875 133.511719 159.707031 132.011719 158.507812 133.210938 M 331.019531 137.796875 C 325.828125 139.214844 319.972656 141.765625 316.132812 144.273438 C 311.925781 147.019531 310.457031 148.734375 310.722656 150.597656 C 310.960938 152.28125 313.597656 152.433594 317.300781 150.976562 C 322.792969 148.816406 333.5 143.074219 335.683594 141.121094 C 337.519531 139.476562 337.769531 139.019531 337.289062 138.222656 C 336.558594 137.007812 334.421875 136.863281 331.019531 137.796875 M 94.113281 138.246094 C 92.699219 139.28125 91.878906 144.960938 91.210938 158.40625 C 90.019531 182.332031 92.726562 195.398438 102.304688 211.953125 C 105.242188 217.027344 119.714844 238.867188 122.339844 242.183594 C 124.726562 245.199219 130.261719 249.550781 131.707031 249.550781 C 132.210938 249.550781 132.902344 249.21875 133.238281 248.8125 C 134.125 247.742188 133.160156 246.160156 127.53125 239.4375 C 119.589844 229.949219 114.972656 223.402344 107.511719 211.039062 C 97.183594 193.933594 95.753906 189.621094 94.835938 172.796875 C 94.210938 161.378906 94.472656 150.890625 95.53125 145.050781 L 96.191406 141.421875 L 98.003906 141.527344 C 99.003906 141.582031 105.886719 143.636719 113.304688 146.085938 C 120.71875 148.539062 131.222656 151.828125 136.640625 153.398438 C 142.058594 154.96875 147.078125 156.449219 147.789062 156.6875 C 148.503906 156.925781 150.019531 157.382812 151.160156 157.707031 C 157.769531 159.570312 178.207031 165.410156 188.242188 168.296875 C 204.496094 172.976562 227.242188 179.183594 234.269531 180.859375 C 238.726562 181.921875 238.753906 182.011719 236.425781 187.605469 C 232.917969 196.035156 224.253906 208.238281 214.953125 217.855469 C 200.6875 232.605469 189.550781 238.792969 164.386719 245.96875 C 151.660156 249.59375 151.164062 249.847656 152.6875 251.929688 C 153.328125 252.808594 153.722656 252.769531 160.558594 251.144531 C 176.191406 247.433594 188.539062 242.527344 197.875 236.316406 C 210.617188 227.835938 223.632812 214.675781 232.488281 201.320312 C 236.824219 194.78125 241.648438 185.078125 241.652344 182.878906 C 241.664062 179.078125 239.09375 178.046875 212.097656 171.046875 C 205.964844 169.457031 193.597656 166.027344 184.613281 163.425781 C 175.625 160.824219 166.582031 158.214844 164.511719 157.625 C 162.445312 157.035156 160.847656 156.453125 160.96875 156.335938 C 161.089844 156.214844 162.898438 156.585938 164.992188 157.160156 C 178.179688 160.777344 178.605469 160.828125 178.296875 158.714844 C 178.164062 157.832031 177.460938 157.390625 175.019531 156.679688 C 173.304688 156.175781 169.921875 155.179688 167.496094 154.460938 C 165.074219 153.742188 157.957031 151.828125 151.679688 150.214844 C 145.40625 148.597656 138.914062 146.917969 137.257812 146.480469 C 135.113281 145.917969 134.082031 145.847656 133.6875 146.242188 C 132.746094 147.183594 133.578125 148.195312 135.859375 148.878906 C 138.445312 149.65625 138.425781 150.171875 135.835938 149.445312 C 122.175781 145.613281 114.695312 143.40625 108.832031 141.480469 C 102.28125 139.332031 99.886719 138.632812 96.402344 137.855469 C 95.640625 137.683594 94.652344 137.851562 94.113281 138.246094 M 198.226562 139.203125 C 195.78125 140.378906 197.324219 144.5 200.429688 145.082031 C 203.800781 145.71875 205.242188 142.089844 202.539062 139.765625 C 201.027344 138.464844 200.023438 138.335938 198.226562 139.203125 M 231.027344 142.636719 C 227.511719 144.785156 227.339844 148.667969 230.710938 149.765625 C 232.996094 150.507812 234.597656 150.15625 236.199219 148.554688 C 238.003906 146.75 237.980469 144.199219 236.144531 142.757812 C 234.460938 141.433594 233.050781 141.398438 231.027344 142.636719 M 263.152344 153.125 C 260.992188 153.753906 259.3125 155.675781 258.945312 157.929688 C 258.675781 159.578125 258.859375 160.023438 260.46875 161.632812 C 261.976562 163.140625 262.679688 163.460938 264.449219 163.460938 C 266.914062 163.460938 269.386719 162.355469 270.164062 160.898438 C 271.222656 158.921875 270.804688 156.226562 269.183594 154.605469 C 268.351562 153.773438 267.320312 153.089844 266.894531 153.089844 C 266.464844 153.089844 265.804688 152.996094 265.425781 152.878906 C 265.046875 152.761719 264.023438 152.875 263.152344 153.125 M 287.054688 158.257812 C 284.996094 160.527344 288.25 163.859375 291.207031 162.507812 C 292.402344 161.964844 292.738281 161.148438 292.507812 159.3125 C 292.246094 157.234375 288.617188 156.53125 287.054688 158.257812 M 183.054688 160.289062 C 183.054688 160.824219 183.347656 161.503906 183.703125 161.796875 C 184.40625 162.378906 195.765625 165.648438 211.0625 169.679688 C 213.484375 170.316406 219.351562 171.980469 224.097656 173.375 C 234.003906 176.285156 234.535156 176.359375 234.304688 174.777344 C 234.105469 173.421875 233.082031 172.996094 219.875 168.726562 C 202.902344 163.238281 188.324219 159.3125 184.910156 159.3125 C 183.441406 159.3125 183.054688 159.515625 183.054688 160.289062 M 358.121094 161.164062 C 357.023438 162.265625 357.09375 164.664062 358.253906 165.714844 C 360.257812 167.527344 363.011719 166.226562 363.011719 163.460938 C 363.011719 161.664062 361.808594 160.351562 360.160156 160.351562 C 359.488281 160.351562 358.570312 160.71875 358.121094 161.164062 M 325.359375 165.226562 C 321 169.585938 324.980469 175.828125 330.351562 173.050781 C 332.261719 172.0625 332.933594 170.8125 332.933594 168.234375 C 332.933594 166.726562 332.578125 165.84375 331.566406 164.828125 C 329.621094 162.886719 327.570312 163.015625 325.359375 165.226562 M 361.714844 184.515625 C 354.640625 185.773438 346.96875 187.28125 339.675781 188.859375 C 335.824219 189.691406 329.289062 191.09375 325.152344 191.976562 C 310.816406 195.042969 298.886719 197.800781 283.664062 201.574219 C 269.707031 205.03125 261.1875 206.996094 239.582031 211.730469 C 231.675781 213.464844 226.816406 215.246094 226.296875 216.597656 C 226.125 217.042969 226.355469 217.972656 226.8125 218.664062 L 227.636719 219.921875 L 231.144531 218.910156 C 242.851562 215.539062 338.207031 193.425781 340.289062 193.597656 C 341.128906 193.671875 336.894531 194.765625 330.339844 196.171875 C 324.839844 197.355469 323.386719 198.21875 324.695312 199.527344 C 325.636719 200.472656 328.101562 200.054688 342.007812 196.59375 C 359.308594 192.285156 371.046875 188.519531 372.628906 186.773438 C 375.183594 183.953125 370.4375 182.96875 361.714844 184.515625 M 376.082031 186.902344 C 375.644531 187.339844 375.457031 190.1875 375.453125 196.367188 C 375.441406 219.441406 372.539062 232.167969 363.234375 249.957031 C 361.398438 253.464844 359.898438 256.644531 359.898438 257.027344 C 359.898438 257.410156 360.257812 258.019531 360.691406 258.378906 C 361.957031 259.425781 363.554688 257.488281 367.046875 250.675781 C 372.964844 239.136719 376.96875 225.417969 378.867188 210.15625 C 379.605469 204.21875 379.871094 189.652344 379.28125 187.449219 C 378.933594 186.160156 377.132812 185.851562 376.082031 186.902344 M 290.40625 188.355469 C 289.835938 188.925781 289.371094 189.824219 289.371094 190.351562 C 289.371094 191.605469 290.972656 193.023438 292.394531 193.023438 C 293.683594 193.023438 295.59375 191.324219 295.59375 190.171875 C 295.59375 189.054688 293.699219 187.320312 292.480469 187.320312 C 291.910156 187.320312 290.976562 187.785156 290.40625 188.355469 M 262.179688 188.652344 C 261.730469 189.101562 261.367188 189.667969 261.367188 189.910156 C 261.367188 190.578125 262.90625 191.984375 263.632812 191.984375 C 265.480469 191.984375 266.144531 189.25 264.511719 188.375 C 263.214844 187.679688 263.144531 187.6875 262.179688 188.652344 M 206.910156 189.746094 C 193.554688 191.941406 189.640625 192.507812 184.613281 192.980469 C 171.273438 194.234375 159.121094 194.683594 143.125 194.503906 L 126.269531 194.320312 L 126.269531 195.59375 C 126.269531 197.296875 127.402344 197.511719 140.164062 198.257812 C 153.417969 199.035156 167.378906 198.324219 186.964844 195.875 C 212.773438 192.652344 214.160156 192.355469 213.347656 190.238281 C 213.027344 189.398438 210.292969 189.191406 206.910156 189.746094 M 370.777344 195.710938 C 370.757812 201.074219 369.953125 209.101562 368.898438 214.417969 C 367.96875 219.117188 368.226562 220.488281 369.929688 219.835938 C 371.519531 219.226562 373.671875 203.914062 373.292969 195.875 C 373.140625 192.566406 373.019531 192.230469 371.957031 192.078125 C 370.839844 191.921875 370.789062 192.074219 370.777344 195.710938 M 104.589844 194.757812 C 103.917969 196.507812 106.808594 197.546875 113.042969 197.796875 C 116.691406 197.941406 116.945312 197.878906 117.09375 196.832031 C 117.277344 195.550781 116.871094 195.421875 109.945312 194.589844 C 104.523438 193.9375 104.910156 193.925781 104.589844 194.757812 M 361.398438 195.488281 C 361.367188 195.699219 361.382812 199.375 361.433594 203.65625 C 361.632812 220.867188 357.457031 241.742188 350.988281 255.878906 C 349.332031 259.5 349.332031 260.960938 350.992188 260.960938 C 351.734375 260.960938 352.484375 259.785156 354.058594 256.164062 C 359.414062 243.855469 362.992188 228.160156 364.078125 212.210938 C 364.621094 204.238281 364.371094 197.75 363.453125 196.003906 C 362.980469 195.105469 361.507812 194.734375 361.398438 195.488281 M 202.246094 200.800781 C 200.996094 202.050781 200.949219 202.792969 202.015625 204.316406 C 203.023438 205.757812 205.015625 205.808594 206.394531 204.433594 C 207.648438 203.175781 207.675781 202.699219 206.59375 201.042969 C 205.566406 199.480469 203.671875 199.375 202.246094 200.800781 M 349.226562 203.738281 C 350.015625 209.089844 350.527344 216.367188 350.546875 222.421875 C 350.558594 225.902344 350.777344 228.878906 351.039062 229.039062 C 351.296875 229.199219 351.910156 229.175781 352.40625 228.984375 C 353.226562 228.667969 353.277344 227.769531 352.996094 217.964844 C 352.640625 205.546875 351.960938 201.671875 350.089844 201.40625 C 348.894531 201.234375 348.867188 201.308594 349.226562 203.738281 M 174.050781 203.007812 C 172.242188 204.652344 172.011719 205.980469 173.191406 207.921875 C 175.691406 212.03125 181.421875 209.882812 180.265625 205.269531 C 179.445312 202.003906 176.382812 200.886719 174.050781 203.007812 M 302.335938 203.382812 C 298.769531 204.1875 293.691406 205.460938 291.050781 206.207031 C 285.140625 207.875 265.882812 212.660156 257.476562 214.546875 C 245.828125 217.160156 244.511719 217.457031 241.988281 218.058594 C 239.441406 218.667969 238.488281 219.621094 239.453125 220.585938 C 240.480469 221.613281 268.023438 215.449219 295.542969 208.03125 C 298.796875 207.15625 303.773438 206.015625 306.605469 205.496094 C 311.988281 204.511719 313.050781 204.003906 312.53125 202.652344 C 312.09375 201.507812 309.945312 201.664062 302.335938 203.382812 M 175.277344 205.933594 C 175.277344 207.019531 176.753906 207.832031 177.453125 207.128906 C 178.15625 206.425781 177.347656 204.953125 176.257812 204.953125 C 175.640625 204.953125 175.277344 205.316406 175.277344 205.933594 M 138.574219 207.664062 C 136.964844 208.441406 136.53125 210.425781 137.695312 211.714844 C 139.617188 213.835938 143.640625 212.253906 143.640625 209.378906 C 143.640625 207.300781 141.109375 206.441406 138.574219 207.664062 M 155.238281 214.542969 C 155.0625 215.011719 155.164062 215.640625 155.464844 215.945312 C 156.257812 216.734375 157.753906 216.011719 157.546875 214.941406 C 157.316406 213.75 155.65625 213.460938 155.238281 214.542969 M 180.140625 215.039062 C 179.78125 215.980469 180.304688 216.878906 181.214844 216.878906 C 182.164062 216.878906 182.585938 215.582031 181.875 214.867188 C 181.085938 214.078125 180.488281 214.136719 180.140625 215.039062 M 224.578125 223.035156 C 223.691406 224.695312 223.863281 225.296875 227.113281 231.789062 C 232.96875 243.484375 238.933594 251.613281 248.894531 261.480469 C 260.15625 272.628906 273.992188 282.195312 289.886719 289.816406 C 295.476562 292.496094 299.921875 294.066406 303.617188 294.667969 C 307.082031 295.230469 308.039062 294.953125 308.039062 293.386719 C 308.039062 292.421875 307.601562 292.097656 305.578125 291.574219 C 293.777344 288.515625 286.707031 285.425781 275.359375 278.371094 C 266.300781 272.738281 259.25 267.039062 251.632812 259.191406 C 241.945312 249.207031 234.011719 238.027344 229.347656 227.78125 C 228.371094 225.636719 227.390625 223.53125 227.167969 223.101562 C 226.554688 221.914062 225.199219 221.878906 224.578125 223.035156 M 168.574219 224.46875 C 167.285156 226.105469 167.277344 226.1875 168.304688 227.652344 C 170.074219 230.179688 174.632812 228.261719 173.910156 225.296875 C 173.492188 223.59375 172.871094 223.121094 171.035156 223.109375 C 170.148438 223.105469 169.261719 223.59375 168.574219 224.46875 M 231.855469 224.109375 C 231.042969 224.609375 231.429688 226.136719 232.441406 226.429688 C 232.804688 226.53125 235.550781 227.128906 238.546875 227.753906 C 241.542969 228.378906 245.773438 229.429688 247.949219 230.085938 C 252.042969 231.320312 253.300781 231.183594 252.984375 229.542969 C 252.730469 228.214844 250.65625 227.609375 233.617188 223.890625 C 233.042969 223.765625 232.25 223.863281 231.855469 224.109375 M 137.425781 229.691406 C 135.480469 232.167969 137.035156 235.238281 140.238281 235.238281 C 142.605469 235.238281 144.160156 233.800781 144.160156 231.609375 C 144.160156 228.296875 139.554688 226.984375 137.425781 229.691406 M 91.261719 230.210938 C 89.804688 230.738281 87.65625 233.125 87.089844 234.84375 C 85.609375 239.328125 90.867188 242.292969 95.230469 239.433594 C 96.933594 238.320312 98.519531 235.621094 98.519531 233.839844 C 98.523438 231.667969 96.433594 229.835938 94.007812 229.886719 C 92.925781 229.90625 91.691406 230.054688 91.261719 230.210938 M 264.824219 230.191406 C 263.273438 231.738281 267.421875 234.457031 276.464844 237.8125 C 291.796875 243.5 317.710938 247.984375 336.300781 248.167969 L 345.121094 248.253906 L 345.121094 246.980469 C 345.121094 245.28125 343.976562 245.089844 331.378906 244.65625 C 318.105469 244.195312 309.578125 243.03125 296.628906 239.894531 C 286.878906 237.535156 271.089844 232.503906 268.207031 230.835938 C 266.414062 229.800781 265.40625 229.605469 264.824219 230.191406 M 162.183594 236.96875 C 160.726562 237.308594 161.03125 239.179688 162.539062 239.179688 C 163.238281 239.179688 163.964844 238.921875 164.15625 238.609375 C 164.640625 237.832031 163.292969 236.710938 162.183594 236.96875 M 281.867188 246.410156 C 281.367188 247.21875 282.027344 247.996094 283.214844 247.996094 C 283.929688 247.996094 284.203125 247.710938 284.085938 247.09375 C 283.886719 246.058594 282.371094 245.59375 281.867188 246.410156 M 298.925781 248.171875 C 298.753906 248.617188 298.761719 249.222656 298.945312 249.519531 C 299.542969 250.484375 306.148438 252.160156 309.855469 252.28125 C 313.179688 252.394531 313.484375 252.316406 313.484375 251.367188 C 313.484375 250.503906 313 250.257812 310.632812 249.914062 C 307.941406 249.519531 302.96875 248.445312 300.398438 247.695312 C 299.59375 247.464844 299.140625 247.609375 298.925781 248.171875 M 290.738281 251.664062 C 289.105469 252.945312 288.992188 254.359375 290.40625 255.773438 C 291.566406 256.9375 294.503906 257.175781 295.488281 256.1875 C 295.832031 255.847656 296.113281 254.71875 296.113281 253.679688 C 296.113281 252.160156 295.855469 251.675781 294.789062 251.191406 C 292.953125 250.351562 292.304688 250.429688 290.738281 251.664062 M 130.441406 252.792969 C 130.332031 253.148438 130.09375 254.957031 129.914062 256.8125 C 129.617188 259.890625 127.800781 270.566406 125.679688 281.703125 C 125.21875 284.128906 124.390625 287.511719 123.839844 289.222656 C 123.289062 290.9375 121.105469 298.300781 118.988281 305.589844 C 115.679688 316.992188 113.945312 322.320312 110.183594 332.621094 C 109.800781 333.671875 107.828125 337.976562 105.800781 342.191406 C 103.777344 346.40625 102.1875 350.214844 102.273438 350.65625 C 102.359375 351.113281 102.960938 351.457031 103.664062 351.457031 C 107.738281 351.457031 120.621094 318.730469 126.019531 294.667969 C 127.140625 289.679688 128.53125 283.960938 129.117188 281.964844 C 133.183594 268.039062 134.929688 256.226562 133.347656 253.3125 C 132.667969 252.0625 130.777344 251.722656 130.441406 252.792969 M 333.6875 257.046875 C 332.988281 257.746094 332.414062 258.691406 332.414062 259.144531 C 332.414062 260.378906 334.789062 262.515625 336.164062 262.515625 C 338.027344 262.515625 339.675781 261.097656 339.675781 259.492188 C 339.675781 255.964844 336.191406 254.542969 333.6875 257.046875 M 144.3125 258.804688 C 142.859375 259.734375 133.597656 283.636719 127.097656 303.226562 C 120.4375 323.304688 117.683594 336.53125 117.742188 348.152344 C 117.78125 355.914062 118.1875 358.199219 119.535156 358.199219 C 120.519531 358.199219 120.566406 357.816406 120.597656 349.640625 C 120.636719 340.050781 121.414062 334.351562 124.25 322.933594 C 127.082031 311.511719 137.277344 281.742188 143.847656 265.703125 C 145.160156 262.496094 146.234375 259.675781 146.234375 259.4375 C 146.234375 258.816406 144.949219 258.394531 144.3125 258.804688 M 204.519531 260.253906 C 203.046875 261.554688 202.050781 264.273438 202.460938 265.894531 C 202.835938 267.386719 205.53125 269.253906 207.320312 269.257812 C 208.988281 269.257812 212.472656 267.386719 213.148438 266.121094 C 214.050781 264.4375 213.550781 261.957031 212.089844 260.871094 C 211.375 260.339844 209.621094 259.765625 208.199219 259.597656 C 206.121094 259.351562 205.398438 259.480469 204.519531 260.253906 M 310.242188 263.933594 C 309.886719 264.054688 309.59375 264.582031 309.59375 265.097656 C 309.59375 266.105469 310.488281 266.652344 311.539062 266.285156 C 311.898438 266.160156 312.1875 265.636719 312.1875 265.121094 C 312.1875 264.113281 311.292969 263.566406 310.242188 263.933594 M 326.921875 268.417969 C 326.5 269.511719 327.089844 270.296875 328.332031 270.296875 C 329.117188 270.296875 329.332031 270.007812 329.210938 269.132812 C 329.015625 267.777344 327.363281 267.261719 326.921875 268.417969 M 342.8125 279.441406 C 337.503906 284.835938 332.757812 290.101562 332.261719 291.144531 C 328.542969 298.984375 330.5625 321.703125 337.347656 348.34375 C 343.144531 371.097656 347.804688 384.464844 352.3125 391.253906 C 356.089844 396.941406 361.667969 400.863281 367.679688 402.050781 C 369.246094 402.363281 373.914062 402.621094 378.050781 402.628906 C 386.199219 402.640625 393.03125 403.5625 396.5625 405.125 C 398.472656 405.96875 398.796875 406.335938 398.796875 407.652344 C 398.796875 409.6875 396.246094 411.707031 389.882812 414.703125 C 380.410156 419.164062 367.753906 423.546875 351.355469 428.035156 C 344.457031 429.925781 343.824219 430.242188 343.824219 431.804688 C 343.824219 434.308594 345.96875 434.027344 357.75 429.980469 C 361.929688 428.542969 370.714844 425.605469 377.273438 423.449219 C 393.597656 418.078125 399.058594 415.242188 400.910156 411.164062 C 404.265625 403.773438 398.445312 399.46875 385.144531 399.503906 C 379.574219 399.519531 375.804688 399.078125 370.273438 397.757812 C 357.410156 394.6875 352.574219 388.242188 348.46875 368.699219 C 346.820312 360.863281 345.695312 356.710938 341.035156 341.34375 C 336.0625 324.957031 334.402344 317.234375 334.121094 309.191406 C 333.648438 295.855469 336.582031 289.457031 348.859375 277.058594 C 351.8125 274.074219 354.164062 271.292969 354.082031 270.875 C 353.683594 268.820312 352.007812 270.097656 342.8125 279.441406 M 295.59375 270.964844 C 293.972656 271.78125 293.59375 274.128906 294.855469 275.527344 C 296.054688 276.851562 298.914062 276.828125 300.261719 275.480469 C 301.878906 273.863281 301.484375 272.242188 299.1875 271.054688 C 297.417969 270.140625 297.242188 270.132812 295.59375 270.964844 M 332.644531 274.65625 C 326.542969 277.839844 319.203125 279.652344 311.820312 279.800781 C 307.6875 279.882812 307.261719 279.984375 307.261719 280.894531 C 307.261719 282.5 310.09375 282.9375 316.136719 282.261719 C 322.824219 281.511719 329.050781 279.796875 333.976562 277.34375 C 338.445312 275.117188 339.953125 273.84375 339.503906 272.671875 C 339.042969 271.46875 338.390625 271.65625 332.644531 274.65625 M 330.859375 283.324219 C 327.492188 285.355469 320.269531 287.921875 317.867188 287.933594 C 315.347656 287.949219 314.199219 288.523438 314.367188 289.679688 C 314.503906 290.660156 314.808594 290.761719 317.117188 290.625 C 320.898438 290.398438 325.367188 289.105469 330.082031 286.867188 C 334.734375 284.65625 336.671875 283.113281 336.230469 281.960938 C 335.777344 280.78125 334.546875 281.09375 330.859375 283.324219 M 252.375 283.085938 C 252.1875 283.277344 252.03125 284.292969 252.03125 285.339844 C 252.03125 287.46875 253.4375 289.171875 254.957031 288.878906 C 256.148438 288.648438 257.234375 285.253906 256.222656 284.917969 C 255.847656 284.792969 255.167969 284.253906 254.707031 283.714844 C 253.851562 282.714844 252.984375 282.480469 252.375 283.085938 M 316.164062 301.636719 C 316.007812 302.046875 316.527344 303.199219 317.320312 304.199219 C 320.9375 308.746094 327.636719 330.15625 331.378906 349.125 C 335.117188 368.058594 337.582031 387.640625 337.59375 398.476562 C 337.601562 403.828125 337.839844 404.613281 339.460938 404.613281 C 341.195312 404.613281 341.503906 403.050781 341.40625 394.761719 C 341.277344 383.582031 339.324219 367.644531 336.574219 355.347656 C 334.285156 345.097656 328.21875 322.980469 325.367188 314.5 C 322.941406 307.273438 321.40625 303.933594 319.753906 302.28125 C 318.234375 300.761719 316.609375 300.46875 316.164062 301.636719 M 92.300781 352.292969 C 82.214844 352.957031 70.078125 354.285156 66.371094 355.128906 C 62.0625 356.109375 59.171875 357.742188 57.902344 359.921875 C 57.007812 361.449219 56.96875 361.894531 57.535156 363.8125 C 59.132812 369.214844 67.933594 374.609375 81.929688 378.761719 C 89.96875 381.148438 126.789062 390.238281 132.15625 391.15625 C 143.589844 393.121094 149.675781 391.90625 150.648438 387.46875 C 151.398438 384.054688 147.316406 379.230469 137.679688 372.144531 C 134.617188 369.894531 130.566406 366.820312 128.671875 365.320312 C 124.9375 362.351562 122.78125 361.878906 122.484375 363.960938 C 122.292969 365.277344 125.3125 368.121094 132.046875 372.976562 C 139.671875 378.476562 143.878906 382.09375 144.941406 384.066406 C 145.902344 385.847656 145.90625 385.976562 145.035156 386.847656 C 143.722656 388.164062 136.21875 388.367188 129.636719 387.265625 C 120.035156 385.660156 90.316406 377.839844 80.890625 374.4375 C 71.089844 370.898438 62.441406 365.835938 61.074219 362.835938 C 60.605469 361.804688 60.671875 361.382812 61.445312 360.53125 C 63.585938 358.164062 70.355469 357.0625 86.335938 356.480469 C 98.285156 356.046875 100.648438 355.582031 101.03125 353.589844 C 101.21875 352.625 100.296875 351.671875 99.300781 351.796875 C 99.015625 351.835938 95.867188 352.058594 92.300781 352.292969 M 354.011719 401.523438 C 352.054688 402.371094 349.207031 403.207031 347.6875 403.386719 C 344.910156 403.714844 344.074219 404.378906 344.859375 405.648438 C 345.523438 406.726562 350.394531 405.96875 354.929688 404.082031 C 358.246094 402.699219 358.890625 402.238281 358.761719 401.351562 C 358.53125 399.796875 357.953125 399.820312 354.011719 401.523438 M 354.714844 404.875 C 354 405.28125 353.039062 405.621094 352.574219 405.632812 C 352.109375 405.644531 351.429688 406.011719 351.0625 406.453125 C 350.515625 407.113281 350.527344 407.390625 351.128906 407.980469 C 351.753906 408.59375 352.273438 408.550781 354.679688 407.699219 C 357.632812 406.652344 358.425781 405.949219 357.980469 404.789062 C 357.640625 403.898438 356.359375 403.933594 354.714844 404.875 M 332.519531 408.421875 C 329.234375 411.453125 323.101562 416.03125 315.4375 421.175781 C 306.503906 427.167969 304.53125 429.949219 306.785156 433.386719 C 308.347656 435.773438 311.363281 436.421875 319.597656 436.140625 C 326.96875 435.890625 329.300781 435.359375 329.300781 433.925781 C 329.300781 432.578125 328.035156 432.378906 320.226562 432.507812 C 312.289062 432.636719 309.574219 432.296875 309.183594 431.125 C 308.824219 430.046875 313.144531 426.433594 322.648438 419.867188 C 332.234375 413.246094 337.082031 409.007812 337.082031 407.253906 C 337.082031 405.472656 335.195312 405.957031 332.519531 408.421875 M 382.199219 412.605469 C 377.332031 415.089844 367.179688 418.628906 358.992188 420.691406 C 357.277344 421.125 356.789062 421.492188 356.789062 422.335938 C 356.789062 423.355469 356.980469 423.402344 359.675781 423.085938 C 365.476562 422.40625 386.273438 414.710938 387.449219 412.8125 C 387.984375 411.945312 387.398438 410.832031 386.421875 410.863281 C 385.953125 410.875 384.054688 411.660156 382.199219 412.605469 M 336.304688 414.769531 C 330.523438 419.488281 325.617188 424.429688 325.796875 425.355469 C 326.070312 426.785156 327.628906 426.164062 330.425781 423.515625 C 331.945312 422.074219 335.476562 419.066406 338.269531 416.832031 C 341.058594 414.597656 343.257812 412.507812 343.15625 412.191406 C 343.050781 411.875 342.398438 411.5625 341.710938 411.5 C 340.828125 411.417969 339.207031 412.398438 336.304688 414.769531 M 362.992188 412.796875 C 357.816406 416.050781 353.453125 417.492188 347.257812 418.007812 C 343.507812 418.320312 343.046875 418.46875 343.046875 419.394531 C 343.046875 420.359375 343.375 420.429688 347.714844 420.378906 C 353.160156 420.316406 358.75 418.667969 363.683594 415.671875 C 366 414.265625 366.664062 413.589844 366.542969 412.765625 C 366.304688 411.179688 365.5625 411.183594 362.992188 412.796875 M 330.339844 427.523438 C 324.890625 428.6875 324.117188 429.003906 324.117188 430.046875 C 324.117188 431.257812 325.828125 431.347656 330.457031 430.367188 C 333.980469 429.625 334.960938 428.886719 333.988281 427.714844 C 333.621094 427.273438 333.179688 426.9375 333 426.96875 C 332.820312 427 331.625 427.25 330.339844 427.523438 " fill-opacity="1" fill-rule="evenodd"/></g><g transform="matrix(1, 0, 0, 1, 484, 62)"><g clip-path="url(#0c1faa533e)"><g fill="#381114" fill-opacity="1"><g transform="translate(0.199515, 188.222388)"><g><path d="M 57.625 -41.75 C 54.976562 -41.75 52.851562 -41.890625 51.25 -42.171875 C 49.644531 -42.453125 48.425781 -42.726562 47.59375 -43 C 45.226562 -43.84375 44.046875 -44.539062 44.046875 -45.09375 C 44.046875 -46.34375 51.144531 -46.96875 65.34375 -46.96875 C 73 -46.96875 80.304688 -48.21875 87.265625 -50.71875 C 94.222656 -53.226562 100.585938 -56.46875 106.359375 -60.4375 C 112.140625 -64.40625 117.046875 -68.648438 121.078125 -73.171875 C 125.117188 -77.691406 127.972656 -81.972656 129.640625 -86.015625 C 130.617188 -88.515625 131.109375 -90.601562 131.109375 -92.28125 C 131.109375 -97.007812 129.050781 -101.21875 124.9375 -104.90625 C 120.832031 -108.59375 115.300781 -111.550781 108.34375 -113.78125 C 101.382812 -116.007812 93.453125 -117.125 84.546875 -117.125 C 76.890625 -117.125 68.710938 -116.113281 60.015625 -114.09375 C 51.316406 -112.070312 42.65625 -108.765625 34.03125 -104.171875 C 33.050781 -103.617188 31.796875 -103.238281 30.265625 -103.03125 C 28.734375 -102.820312 27.132812 -102.71875 25.46875 -102.71875 C 23.382812 -102.71875 21.472656 -102.925781 19.734375 -103.34375 C 17.992188 -103.757812 17.125 -104.382812 17.125 -105.21875 C 17.125 -106.332031 18.441406 -107.582031 21.078125 -108.96875 C 30.410156 -113.976562 40.15625 -117.597656 50.3125 -119.828125 C 60.46875 -122.054688 70.421875 -123.171875 80.171875 -123.171875 C 89.628906 -123.171875 98.601562 -122.265625 107.09375 -120.453125 C 115.582031 -118.648438 123.097656 -116.179688 129.640625 -113.046875 C 136.179688 -109.910156 141.296875 -106.289062 144.984375 -102.1875 C 148.671875 -98.082031 150.515625 -93.734375 150.515625 -89.140625 C 150.515625 -86.640625 149.890625 -84.132812 148.640625 -81.625 C 146.140625 -76.332031 141.546875 -71.21875 134.859375 -66.28125 C 128.179688 -61.34375 120.179688 -56.992188 110.859375 -53.234375 C 101.535156 -49.472656 91.648438 -46.550781 81.203125 -44.46875 C 75.921875 -43.488281 71.363281 -42.789062 67.53125 -42.375 C 63.707031 -41.957031 60.40625 -41.75 57.625 -41.75 Z M 15.859375 12.9375 C 14.753906 12.9375 13.4375 12 11.90625 10.125 C 10.375 8.25 9.050781 4.597656 7.9375 -0.828125 C 7.789062 -1.671875 7.679688 -2.539062 7.609375 -3.4375 C 7.546875 -4.34375 7.515625 -5.285156 7.515625 -6.265625 C 7.515625 -10.992188 8.175781 -16.59375 9.5 -23.0625 C 10.820312 -29.539062 12.59375 -36.363281 14.8125 -43.53125 C 17.039062 -50.695312 19.476562 -57.757812 22.125 -64.71875 C 24.769531 -71.675781 27.484375 -78.078125 30.265625 -83.921875 C 33.054688 -89.765625 35.632812 -94.5 38 -98.125 C 39.945312 -101.320312 42.765625 -103.507812 46.453125 -104.6875 C 50.140625 -105.875 53.65625 -106.46875 57 -106.46875 C 60.195312 -106.46875 62.835938 -106.050781 64.921875 -105.21875 C 67.015625 -104.382812 67.570312 -103.410156 66.59375 -102.296875 C 62 -96.585938 57.265625 -89.800781 52.390625 -81.9375 C 47.523438 -74.070312 42.9375 -65.71875 38.625 -56.875 C 34.3125 -48.039062 30.484375 -39.3125 27.140625 -30.6875 C 23.796875 -22.0625 21.289062 -14.128906 19.625 -6.890625 C 17.957031 0.347656 17.398438 6.332031 17.953125 11.0625 C 17.953125 12.3125 17.253906 12.9375 15.859375 12.9375 Z M 15.859375 12.9375 "/></g></g></g><g fill="#381114" fill-opacity="1"><g transform="translate(164.502548, 188.222388)"><g><path d="M 85.390625 7.9375 C 79.117188 7.9375 72.367188 7.171875 65.140625 5.640625 C 51.359375 2.710938 40.015625 -1.671875 31.109375 -7.515625 C 22.203125 -13.359375 15.585938 -20.035156 11.265625 -27.546875 C 6.953125 -35.066406 4.796875 -42.796875 4.796875 -50.734375 C 4.796875 -59.773438 7.441406 -68.609375 12.734375 -77.234375 C 18.023438 -85.867188 25.816406 -93.421875 36.109375 -99.890625 C 46.410156 -106.367188 58.9375 -110.859375 73.6875 -113.359375 C 81.207031 -114.609375 89.210938 -115.234375 97.703125 -115.234375 C 104.109375 -115.234375 110.234375 -114.847656 116.078125 -114.078125 C 121.921875 -113.316406 126.960938 -112.238281 131.203125 -110.84375 C 135.453125 -109.457031 138.34375 -107.648438 139.875 -105.421875 C 140.570312 -104.585938 140.921875 -103.40625 140.921875 -101.875 C 140.921875 -99.925781 140.429688 -98.257812 139.453125 -96.875 C 144.742188 -94.914062 149.6875 -92.09375 154.28125 -88.40625 C 158.875 -84.71875 162.523438 -80.367188 165.234375 -75.359375 C 167.953125 -70.347656 169.3125 -64.78125 169.3125 -58.65625 C 169.3125 -52.8125 167.921875 -46.898438 165.140625 -40.921875 C 160.816406 -31.867188 154.722656 -23.65625 146.859375 -16.28125 C 139.003906 -8.90625 129.851562 -3.023438 119.40625 1.359375 C 108.96875 5.742188 97.628906 7.9375 85.390625 7.9375 Z M 79.953125 1.046875 C 90.535156 1.046875 100.414062 -1.003906 109.59375 -5.109375 C 118.78125 -9.210938 126.851562 -14.707031 133.8125 -21.59375 C 140.769531 -28.488281 146.128906 -36.046875 149.890625 -44.265625 C 151.421875 -47.460938 152.5 -50.519531 153.125 -53.4375 C 153.75 -56.363281 154.0625 -59.148438 154.0625 -61.796875 C 154.0625 -69.171875 151.9375 -75.363281 147.6875 -80.375 C 143.445312 -85.382812 138.226562 -89.175781 132.03125 -91.75 C 125.84375 -94.320312 119.6875 -95.609375 113.5625 -95.609375 C 107.71875 -95.609375 102.78125 -94.5 98.75 -92.28125 C 97.351562 -91.582031 96.171875 -91.234375 95.203125 -91.234375 C 93.523438 -91.234375 92.6875 -91.789062 92.6875 -92.90625 C 92.6875 -93.320312 93.832031 -93.738281 96.125 -94.15625 C 98.425781 -94.570312 101.316406 -95.019531 104.796875 -95.5 C 108.273438 -95.988281 111.859375 -96.441406 115.546875 -96.859375 C 119.234375 -97.285156 122.429688 -97.671875 125.140625 -98.015625 C 127.859375 -98.359375 129.640625 -98.671875 130.484375 -98.953125 C 128.671875 -99.085938 126.925781 -99.222656 125.25 -99.359375 C 123.582031 -99.503906 123.304688 -99.578125 124.421875 -99.578125 L 124.640625 -99.578125 C 128.804688 -99.578125 130.890625 -99.4375 130.890625 -99.15625 C 130.890625 -99.15625 130.753906 -99.085938 130.484375 -98.953125 C 131.867188 -98.816406 132.910156 -98.675781 133.609375 -98.53125 L 133.609375 -99.796875 C 133.609375 -103.128906 131.132812 -105.628906 126.1875 -107.296875 C 121.25 -108.972656 115.300781 -109.8125 108.34375 -109.8125 C 104.03125 -109.8125 99.40625 -109.5 94.46875 -108.875 C 89.53125 -108.25 84.625 -107.238281 79.75 -105.84375 C 66.664062 -102.226562 56.085938 -97.390625 48.015625 -91.328125 C 39.941406 -85.273438 34.09375 -78.59375 30.46875 -71.28125 C 26.851562 -63.976562 25.046875 -56.640625 25.046875 -49.265625 C 25.046875 -41.890625 26.644531 -34.828125 29.84375 -28.078125 C 33.050781 -21.328125 37.539062 -15.550781 43.3125 -10.75 C 49.09375 -5.945312 55.738281 -2.640625 63.25 -0.828125 C 68.957031 0.421875 74.523438 1.046875 79.953125 1.046875 Z M 79.953125 1.046875 "/></g></g></g><g fill="#381114" fill-opacity="1"><g transform="translate(357.824689, 188.222388)"><g><path d="M 91.234375 15.234375 C 89.984375 15.234375 88.519531 14.957031 86.84375 14.40625 C 83.78125 13.425781 81.34375 12.445312 79.53125 11.46875 C 77.726562 10.5 76.410156 8.796875 75.578125 6.359375 C 74.742188 3.929688 74.113281 0.00390625 73.6875 -5.421875 C 73.550781 -7.097656 73.796875 -10.195312 74.421875 -14.71875 C 75.046875 -19.238281 75.984375 -24.488281 77.234375 -30.46875 C 78.492188 -36.457031 79.992188 -42.515625 81.734375 -48.640625 C 83.472656 -54.765625 85.382812 -60.265625 87.46875 -65.140625 C 85.382812 -63.328125 82.8125 -60.332031 79.75 -56.15625 C 76.6875 -51.976562 73.238281 -47.175781 69.40625 -41.75 C 65.582031 -36.320312 61.410156 -30.71875 56.890625 -24.9375 C 52.367188 -19.164062 47.53125 -13.773438 42.375 -8.765625 C 40.425781 -6.816406 37.957031 -5.003906 34.96875 -3.328125 C 31.976562 -1.660156 28.953125 -0.445312 25.890625 0.3125 C 22.828125 1.082031 20.113281 1.328125 17.75 1.046875 C 17.1875 1.046875 16.035156 0.664062 14.296875 -0.09375 C 12.554688 -0.863281 10.921875 -2.289062 9.390625 -4.375 C 7.859375 -6.46875 7.09375 -9.601562 7.09375 -13.78125 C 7.09375 -16.5625 7.578125 -21.117188 8.546875 -27.453125 C 9.523438 -33.785156 10.988281 -41.125 12.9375 -49.46875 C 14.882812 -57.820312 17.351562 -66.414062 20.34375 -75.25 C 23.34375 -84.09375 26.859375 -92.410156 30.890625 -100.203125 C 34.929688 -107.992188 39.457031 -114.46875 44.46875 -119.625 C 46 -121.15625 48.675781 -122.546875 52.5 -123.796875 C 56.332031 -125.046875 59.640625 -125.671875 62.421875 -125.671875 C 65.484375 -125.671875 67.015625 -124.90625 67.015625 -123.375 C 67.015625 -122.957031 66.664062 -122.191406 65.96875 -121.078125 C 59.425781 -111.472656 53.613281 -101.800781 48.53125 -92.0625 C 43.457031 -82.320312 39.179688 -72.925781 35.703125 -63.875 C 32.222656 -54.832031 29.578125 -46.519531 27.765625 -38.9375 C 25.953125 -31.351562 25.046875 -25.054688 25.046875 -20.046875 C 25.046875 -16.148438 25.632812 -13.15625 26.8125 -11.0625 C 28 -8.976562 29.78125 -8.144531 32.15625 -8.5625 C 34.519531 -8.976562 37.679688 -11.273438 41.640625 -15.453125 C 45.609375 -19.628906 50.097656 -24.914062 55.109375 -31.3125 C 60.117188 -37.71875 65.300781 -44.640625 70.65625 -52.078125 C 76.019531 -59.523438 81.207031 -66.726562 86.21875 -73.6875 C 91.226562 -80.644531 95.75 -86.734375 99.78125 -91.953125 C 103.820312 -97.179688 106.957031 -100.769531 109.1875 -102.71875 C 110.300781 -103.6875 111.238281 -104.34375 112 -104.6875 C 112.769531 -105.039062 113.429688 -105.21875 113.984375 -105.21875 C 115.515625 -105.21875 116.28125 -104.175781 116.28125 -102.09375 C 116.28125 -100.976562 116.070312 -100 115.65625 -99.15625 C 114.40625 -96.789062 112.734375 -93.171875 110.640625 -88.296875 C 108.554688 -83.429688 106.363281 -77.757812 104.0625 -71.28125 C 101.769531 -64.8125 99.613281 -57.992188 97.59375 -50.828125 C 95.582031 -43.660156 93.914062 -36.492188 92.59375 -29.328125 C 91.269531 -22.160156 90.609375 -15.445312 90.609375 -9.1875 C 90.609375 -2.925781 91.441406 2.5 93.109375 7.09375 C 93.941406 9.1875 94.359375 10.925781 94.359375 12.3125 C 94.359375 14.257812 93.316406 15.234375 91.234375 15.234375 Z M 91.234375 15.234375 "/></g></g></g><g fill="#381114" fill-opacity="1"><g transform="translate(492.482322, 188.222388)"><g><path d="M 130.484375 8.34375 C 128.671875 8.34375 125.675781 7.679688 121.5 6.359375 C 117.320312 5.046875 112.867188 3.304688 108.140625 1.140625 C 103.410156 -1.015625 99.234375 -3.273438 95.609375 -5.640625 C 92.691406 -7.585938 89.210938 -10.054688 85.171875 -13.046875 C 81.140625 -16.035156 77.140625 -19.097656 73.171875 -22.234375 C 69.203125 -25.367188 65.753906 -28.148438 62.828125 -30.578125 C 59.910156 -33.015625 58.101562 -34.582031 57.40625 -35.28125 C 56.4375 -36.257812 55.953125 -37.515625 55.953125 -39.046875 C 55.953125 -40.148438 56.191406 -41.296875 56.671875 -42.484375 C 57.160156 -43.671875 57.6875 -44.816406 58.25 -45.921875 C 57.832031 -45.921875 57.410156 -46.023438 56.984375 -46.234375 C 56.566406 -46.453125 56.359375 -46.5625 56.359375 -46.5625 C 53.859375 -47.394531 52.609375 -48.15625 52.609375 -48.84375 C 52.609375 -50.375 56.503906 -51.140625 64.296875 -51.140625 L 68.46875 -51.140625 C 69.164062 -51.140625 69.929688 -51.175781 70.765625 -51.25 C 71.609375 -51.320312 72.445312 -51.359375 73.28125 -51.359375 C 83.570312 -51.359375 92.71875 -52.957031 100.71875 -56.15625 C 108.726562 -59.351562 115.238281 -63.25 120.25 -67.84375 C 125.257812 -72.4375 128.390625 -76.753906 129.640625 -80.796875 C 130.054688 -82.328125 130.265625 -83.648438 130.265625 -84.765625 C 130.265625 -89.628906 127.722656 -93.59375 122.640625 -96.65625 C 117.566406 -99.71875 110.992188 -102.015625 102.921875 -103.546875 C 94.847656 -105.078125 86.359375 -105.84375 77.453125 -105.84375 C 69.515625 -105.84375 61.71875 -105.285156 54.0625 -104.171875 C 46.414062 -103.054688 39.738281 -101.316406 34.03125 -98.953125 C 32.21875 -98.253906 30.546875 -97.90625 29.015625 -97.90625 C 26.785156 -97.90625 25.671875 -98.394531 25.671875 -99.375 C 25.671875 -100.625 27.691406 -102.289062 31.734375 -104.375 C 39.804688 -108.414062 48.117188 -111.304688 56.671875 -113.046875 C 65.234375 -114.785156 73.691406 -115.65625 82.046875 -115.65625 C 91.234375 -115.65625 99.929688 -114.75 108.140625 -112.9375 C 116.347656 -111.132812 123.65625 -108.664062 130.0625 -105.53125 C 136.46875 -102.394531 141.476562 -98.914062 145.09375 -95.09375 C 148.707031 -91.269531 150.515625 -87.335938 150.515625 -83.296875 C 150.515625 -81.066406 149.890625 -78.769531 148.640625 -76.40625 C 147.242188 -73.90625 144.5625 -71.257812 140.59375 -68.46875 C 136.632812 -65.6875 131.941406 -62.9375 126.515625 -60.21875 C 121.085938 -57.507812 115.207031 -55.078125 108.875 -52.921875 C 102.539062 -50.765625 96.242188 -49.128906 89.984375 -48.015625 C 87.472656 -47.597656 84.859375 -47.179688 82.140625 -46.765625 C 79.429688 -46.347656 76.753906 -46.140625 74.109375 -46.140625 C 75.359375 -44.460938 77.582031 -41.609375 80.78125 -37.578125 C 83.988281 -33.546875 88.023438 -29.023438 92.890625 -24.015625 C 97.765625 -19.003906 103.265625 -13.992188 109.390625 -8.984375 C 111.054688 -7.722656 113.316406 -6.117188 116.171875 -4.171875 C 119.023438 -2.222656 121.84375 -0.273438 124.625 1.671875 C 127.414062 3.617188 129.472656 5.21875 130.796875 6.46875 C 132.117188 7.71875 132.015625 8.34375 130.484375 8.34375 Z M 15.859375 18.15625 C 14.753906 18.15625 13.4375 17.21875 11.90625 15.34375 C 10.375 13.46875 9.050781 9.816406 7.9375 4.390625 C 7.789062 3.546875 7.679688 2.671875 7.609375 1.765625 C 7.546875 0.867188 7.515625 -0.0664062 7.515625 -1.046875 C 7.515625 -5.773438 8.175781 -11.375 9.5 -17.84375 C 10.820312 -24.320312 12.59375 -31.144531 14.8125 -38.3125 C 17.039062 -45.476562 19.476562 -52.539062 22.125 -59.5 C 24.769531 -66.457031 27.484375 -72.859375 30.265625 -78.703125 C 33.054688 -84.546875 35.632812 -89.28125 38 -92.90625 C 39.945312 -96.101562 42.765625 -98.289062 46.453125 -99.46875 C 50.140625 -100.65625 53.65625 -101.25 57 -101.25 C 60.195312 -101.25 62.835938 -100.832031 64.921875 -100 C 67.015625 -99.164062 67.570312 -98.191406 66.59375 -97.078125 C 62 -91.367188 57.265625 -84.582031 52.390625 -76.71875 C 47.523438 -68.851562 42.9375 -60.5 38.625 -51.65625 C 34.3125 -42.820312 30.484375 -34.09375 27.140625 -25.46875 C 23.796875 -16.84375 21.289062 -8.910156 19.625 -1.671875 C 17.957031 5.566406 17.398438 11.550781 17.953125 16.28125 C 17.953125 17.53125 17.253906 18.15625 15.859375 18.15625 Z M 15.859375 18.15625 "/></g></g></g></g></g><g transform="matrix(1, 0, 0, 1, 510, 333)"><g clip-path="url(#b483efb744)"><g fill="#381114" fill-opacity="1"><g transform="translate(1.021212, 51.293135)"><g><path d="M 13.390625 0 L 13.390625 -30.796875 L 1.828125 -30.796875 L 1.828125 -33.578125 L 27.875 -33.578125 L 27.875 -30.796875 L 16.265625 -30.796875 L 16.265625 0 Z M 13.390625 0 "/></g></g></g><g fill="#381114" fill-opacity="1"><g transform="translate(48.372344, 51.293135)"><g><path d="M 28.015625 0 L 28.015625 -15.734375 L 8.34375 -15.734375 L 8.34375 0 L 5.421875 0 L 5.421875 -33.578125 L 8.34375 -33.578125 L 8.34375 -18.515625 L 28.015625 -18.515625 L 28.015625 -33.578125 L 30.9375 -33.578125 L 30.9375 0 Z M 28.015625 0 "/></g></g></g><g fill="#381114" fill-opacity="1"><g transform="translate(102.391888, 51.293135)"><g><path d="M 5.421875 0 L 5.421875 -33.578125 L 25.1875 -33.578125 L 25.1875 -30.84375 L 8.34375 -30.84375 L 8.34375 -18.46875 L 23.9375 -18.46875 L 23.9375 -15.78125 L 8.34375 -15.78125 L 8.34375 -2.734375 L 25.71875 -2.734375 L 25.71875 0 Z M 5.421875 0 "/></g></g></g><g fill="#381114" fill-opacity="1"><g transform="translate(149.263283, 51.293135)"><g/></g></g><g fill="#381114" fill-opacity="1"><g transform="translate(179.775495, 51.293135)"><g><path d="M 20.390625 0.625 C 16.992188 0.625 13.992188 -0.109375 11.390625 -1.578125 C 8.785156 -3.054688 6.742188 -5.101562 5.265625 -7.71875 C 3.796875 -10.34375 3.0625 -13.367188 3.0625 -16.796875 C 3.0625 -20.210938 3.796875 -23.226562 5.265625 -25.84375 C 6.742188 -28.46875 8.785156 -30.515625 11.390625 -31.984375 C 13.992188 -33.460938 16.992188 -34.203125 20.390625 -34.203125 C 23.804688 -34.203125 26.816406 -33.460938 29.421875 -31.984375 C 32.035156 -30.515625 34.066406 -28.46875 35.515625 -25.84375 C 36.972656 -23.226562 37.703125 -20.210938 37.703125 -16.796875 C 37.703125 -13.367188 36.972656 -10.34375 35.515625 -7.71875 C 34.066406 -5.101562 32.035156 -3.054688 29.421875 -1.578125 C 26.816406 -0.109375 23.804688 0.625 20.390625 0.625 Z M 6.046875 -16.796875 C 6.046875 -13.941406 6.648438 -11.421875 7.859375 -9.234375 C 9.078125 -7.046875 10.765625 -5.34375 12.921875 -4.125 C 15.085938 -2.90625 17.578125 -2.296875 20.390625 -2.296875 C 23.234375 -2.296875 25.734375 -2.90625 27.890625 -4.125 C 30.046875 -5.34375 31.734375 -7.046875 32.953125 -9.234375 C 34.171875 -11.421875 34.78125 -13.941406 34.78125 -16.796875 C 34.78125 -19.671875 34.171875 -22.191406 32.953125 -24.359375 C 31.734375 -26.535156 30.046875 -28.234375 27.890625 -29.453125 C 25.734375 -30.671875 23.234375 -31.28125 20.390625 -31.28125 C 17.578125 -31.28125 15.085938 -30.671875 12.921875 -29.453125 C 10.765625 -28.234375 9.078125 -26.535156 7.859375 -24.359375 C 6.648438 -22.191406 6.046875 -19.671875 6.046875 -16.796875 Z M 6.046875 -16.796875 "/></g></g></g><g fill="#381114" fill-opacity="1"><g transform="translate(238.208665, 51.293135)"><g><path d="M 20.09375 0.625 C 16.800781 0.625 13.875 -0.117188 11.3125 -1.609375 C 8.757812 -3.097656 6.742188 -5.148438 5.265625 -7.765625 C 3.796875 -10.390625 3.0625 -13.398438 3.0625 -16.796875 C 3.0625 -20.210938 3.796875 -23.222656 5.265625 -25.828125 C 6.742188 -28.429688 8.757812 -30.476562 11.3125 -31.96875 C 13.875 -33.457031 16.800781 -34.203125 20.09375 -34.203125 C 22.65625 -34.203125 25.019531 -33.726562 27.1875 -32.78125 C 29.363281 -31.84375 31.234375 -30.515625 32.796875 -28.796875 C 34.367188 -27.085938 35.523438 -25.050781 36.265625 -22.6875 L 33.1875 -22.6875 C 32.226562 -25.34375 30.582031 -27.4375 28.25 -28.96875 C 25.914062 -30.507812 23.210938 -31.28125 20.140625 -31.28125 C 17.421875 -31.28125 15 -30.671875 12.875 -29.453125 C 10.75 -28.234375 9.078125 -26.535156 7.859375 -24.359375 C 6.648438 -22.191406 6.046875 -19.671875 6.046875 -16.796875 C 6.046875 -13.941406 6.648438 -11.421875 7.859375 -9.234375 C 9.078125 -7.046875 10.75 -5.34375 12.875 -4.125 C 15 -2.90625 17.421875 -2.296875 20.140625 -2.296875 C 23.273438 -2.296875 26.050781 -3.09375 28.46875 -4.6875 C 30.882812 -6.289062 32.554688 -8.484375 33.484375 -11.265625 L 36.546875 -11.265625 C 35.878906 -8.867188 34.742188 -6.773438 33.140625 -4.984375 C 31.546875 -3.191406 29.632812 -1.804688 27.40625 -0.828125 C 25.1875 0.140625 22.75 0.625 20.09375 0.625 Z M 20.09375 0.625 "/></g></g></g><g fill="#381114" fill-opacity="1"><g transform="translate(295.298553, 51.293135)"><g><path d="M 20.09375 0.625 C 16.800781 0.625 13.875 -0.117188 11.3125 -1.609375 C 8.757812 -3.097656 6.742188 -5.148438 5.265625 -7.765625 C 3.796875 -10.390625 3.0625 -13.398438 3.0625 -16.796875 C 3.0625 -20.210938 3.796875 -23.222656 5.265625 -25.828125 C 6.742188 -28.429688 8.757812 -30.476562 11.3125 -31.96875 C 13.875 -33.457031 16.800781 -34.203125 20.09375 -34.203125 C 22.65625 -34.203125 25.019531 -33.726562 27.1875 -32.78125 C 29.363281 -31.84375 31.234375 -30.515625 32.796875 -28.796875 C 34.367188 -27.085938 35.523438 -25.050781 36.265625 -22.6875 L 33.1875 -22.6875 C 32.226562 -25.34375 30.582031 -27.4375 28.25 -28.96875 C 25.914062 -30.507812 23.210938 -31.28125 20.140625 -31.28125 C 17.421875 -31.28125 15 -30.671875 12.875 -29.453125 C 10.75 -28.234375 9.078125 -26.535156 7.859375 -24.359375 C 6.648438 -22.191406 6.046875 -19.671875 6.046875 -16.796875 C 6.046875 -13.941406 6.648438 -11.421875 7.859375 -9.234375 C 9.078125 -7.046875 10.75 -5.34375 12.875 -4.125 C 15 -2.90625 17.421875 -2.296875 20.140625 -2.296875 C 23.273438 -2.296875 26.050781 -3.09375 28.46875 -4.6875 C 30.882812 -6.289062 32.554688 -8.484375 33.484375 -11.265625 L 36.546875 -11.265625 C 35.878906 -8.867188 34.742188 -6.773438 33.140625 -4.984375 C 31.546875 -3.191406 29.632812 -1.804688 27.40625 -0.828125 C 25.1875 0.140625 22.75 0.625 20.09375 0.625 Z M 20.09375 0.625 "/></g></g></g><g fill="#381114" fill-opacity="1"><g transform="translate(352.388441, 51.293135)"><g><path d="M 1.0625 0 L 14.96875 -33.578125 L 17.75 -33.578125 L 31.65625 0 L 28.59375 0 L 25.09375 -8.4375 L 7.625 -8.4375 L 4.171875 0 Z M 8.78125 -11.125 L 23.984375 -11.125 L 16.359375 -29.59375 Z M 8.78125 -11.125 "/></g></g></g><g fill="#381114" fill-opacity="1"><g transform="translate(402.809905, 51.293135)"><g><path d="M 16.21875 0.625 C 13.65625 0.625 11.421875 0.191406 9.515625 -0.671875 C 7.617188 -1.535156 6.140625 -2.765625 5.078125 -4.359375 C 4.023438 -5.960938 3.453125 -7.835938 3.359375 -9.984375 L 6.234375 -9.984375 C 6.390625 -7.515625 7.363281 -5.59375 9.15625 -4.21875 C 10.945312 -2.84375 13.300781 -2.15625 16.21875 -2.15625 C 18.96875 -2.15625 21.140625 -2.722656 22.734375 -3.859375 C 24.335938 -4.992188 25.140625 -6.535156 25.140625 -8.484375 C 25.140625 -10.242188 24.398438 -11.675781 22.921875 -12.78125 C 21.453125 -13.882812 19.023438 -14.804688 15.640625 -15.546875 C 11.515625 -16.503906 8.523438 -17.734375 6.671875 -19.234375 C 4.816406 -20.734375 3.890625 -22.75 3.890625 -25.28125 C 3.890625 -27.96875 4.910156 -30.125 6.953125 -31.75 C 9.003906 -33.382812 11.816406 -34.203125 15.390625 -34.203125 C 19.109375 -34.203125 22.03125 -33.304688 24.15625 -31.515625 C 26.28125 -29.722656 27.40625 -27.210938 27.53125 -23.984375 L 24.65625 -23.984375 C 24.53125 -26.347656 23.660156 -28.175781 22.046875 -29.46875 C 20.429688 -30.769531 18.210938 -31.421875 15.390625 -31.421875 C 12.679688 -31.421875 10.570312 -30.859375 9.0625 -29.734375 C 7.5625 -28.617188 6.8125 -27.132812 6.8125 -25.28125 C 6.8125 -23.613281 7.519531 -22.226562 8.9375 -21.125 C 10.363281 -20.019531 12.835938 -19.070312 16.359375 -18.28125 C 20.609375 -17.289062 23.628906 -16.019531 25.421875 -14.46875 C 27.210938 -12.914062 28.109375 -10.9375 28.109375 -8.53125 C 28.109375 -5.71875 27.035156 -3.488281 24.890625 -1.84375 C 22.753906 -0.195312 19.863281 0.625 16.21875 0.625 Z M 16.21875 0.625 "/></g></g></g><g fill="#381114" fill-opacity="1"><g transform="translate(451.984068, 51.293135)"><g><path d="M 5.421875 0 L 5.421875 -33.578125 L 8.34375 -33.578125 L 8.34375 0 Z M 5.421875 0 "/></g></g></g><g fill="#381114" fill-opacity="1"><g transform="translate(483.407784, 51.293135)"><g><path d="M 20.390625 0.625 C 16.992188 0.625 13.992188 -0.109375 11.390625 -1.578125 C 8.785156 -3.054688 6.742188 -5.101562 5.265625 -7.71875 C 3.796875 -10.34375 3.0625 -13.367188 3.0625 -16.796875 C 3.0625 -20.210938 3.796875 -23.226562 5.265625 -25.84375 C 6.742188 -28.46875 8.785156 -30.515625 11.390625 -31.984375 C 13.992188 -33.460938 16.992188 -34.203125 20.390625 -34.203125 C 23.804688 -34.203125 26.816406 -33.460938 29.421875 -31.984375 C 32.035156 -30.515625 34.066406 -28.46875 35.515625 -25.84375 C 36.972656 -23.226562 37.703125 -20.210938 37.703125 -16.796875 C 37.703125 -13.367188 36.972656 -10.34375 35.515625 -7.71875 C 34.066406 -5.101562 32.035156 -3.054688 29.421875 -1.578125 C 26.816406 -0.109375 23.804688 0.625 20.390625 0.625 Z M 6.046875 -16.796875 C 6.046875 -13.941406 6.648438 -11.421875 7.859375 -9.234375 C 9.078125 -7.046875 10.765625 -5.34375 12.921875 -4.125 C 15.085938 -2.90625 17.578125 -2.296875 20.390625 -2.296875 C 23.234375 -2.296875 25.734375 -2.90625 27.890625 -4.125 C 30.046875 -5.34375 31.734375 -7.046875 32.953125 -9.234375 C 34.171875 -11.421875 34.78125 -13.941406 34.78125 -16.796875 C 34.78125 -19.671875 34.171875 -22.191406 32.953125 -24.359375 C 31.734375 -26.535156 30.046875 -28.234375 27.890625 -29.453125 C 25.734375 -30.671875 23.234375 -31.28125 20.390625 -31.28125 C 17.578125 -31.28125 15.085938 -30.671875 12.921875 -29.453125 C 10.765625 -28.234375 9.078125 -26.535156 7.859375 -24.359375 C 6.648438 -22.191406 6.046875 -19.671875 6.046875 -16.796875 Z M 6.046875 -16.796875 "/></g></g></g><g fill="#381114" fill-opacity="1"><g transform="translate(541.840917, 51.293135)"><g><path d="M 5.421875 0 L 5.421875 -33.578125 L 8.15625 -33.578125 L 28.59375 -5.03125 L 28.59375 -33.578125 L 31.46875 -33.578125 L 31.46875 0 L 28.734375 0 L 8.296875 -28.59375 L 8.296875 0 Z M 5.421875 0 "/></g></g></g></g></g></svg>