<svg xmlns="http://www.w3.org/2000/svg" xmlns:xlink="http://www.w3.org/1999/xlink" width="2000" zoomAndPan="magnify" viewBox="0 0 1500 1499.999933" height="2000" preserveAspectRatio="xMidYMid meet" version="1.0"><defs><clipPath id="b17eb100e7"><path d="M 1500 75 L 1500 1425 C 1500 1444.890625 1492.097656 1463.96875 1478.03125 1478.03125 C 1463.96875 1492.097656 1444.890625 1500 1425 1500 L 75 1500 C 55.109375 1500 36.03125 1492.097656 21.96875 1478.03125 C 7.902344 1463.96875 0 1444.890625 0 1425 L 0 75 C 0 33.578125 33.578125 0 75 0 L 1425 0 C 1444.890625 0 1463.96875 7.902344 1478.03125 21.96875 C 1492.097656 36.03125 1500 55.109375 1500 75 Z M 1500 75 " clip-rule="nonzero"/></clipPath><clipPath id="ffcbfe891c"><path d="M 0 0 L 1500 0 L 1500 1500 L 0 1500 Z M 0 0 " clip-rule="nonzero"/></clipPath><clipPath id="0fe25473a6"><path d="M 1500 75 L 1500 1425 C 1500 1444.890625 1492.097656 1463.96875 1478.03125 1478.03125 C 1463.96875 1492.097656 1444.890625 1500 1425 1500 L 75 1500 C 55.109375 1500 36.03125 1492.097656 21.96875 1478.03125 C 7.902344 1463.96875 0 1444.890625 0 1425 L 0 75 C 0 33.578125 33.578125 0 75 0 L 1425 0 C 1444.890625 0 1463.96875 7.902344 1478.03125 21.96875 C 1492.097656 36.03125 1500 55.109375 1500 75 Z M 1500 75 " clip-rule="nonzero"/></clipPath><clipPath id="b0a83f2e37"><rect x="0" width="1500" y="0" height="1500"/></clipPath></defs><g clip-path="url(#b17eb100e7)"><g transform="matrix(1, 0, 0, 1, 0, 0.000000000000112861)"><g clip-path="url(#b0a83f2e37)"><g clip-path="url(#ffcbfe891c)"><g clip-path="url(#0fe25473a6)"><rect x="-330" width="2160" fill="#381114" height="2159.999904" y="-329.999985" fill-opacity="1"/></g></g></g></g></g><path fill="#ba9672" d="M 611.191406 99.519531 C 608.820312 101.886719 610.074219 107.597656 615.195312 117.730469 C 621.292969 129.796875 626.273438 134.878906 630.4375 133.285156 C 634.433594 131.75 634.164062 126.707031 629.59375 117.605469 C 621.980469 102.445312 615.0625 95.648438 611.191406 99.519531 M 845.734375 120.378906 C 837.089844 132.246094 834.828125 137.601562 835.425781 144.796875 C 837.027344 164.023438 862.019531 141.734375 862.078125 121.027344 C 862.089844 117.453125 857.359375 112.878906 853.546875 112.78125 C 852.316406 112.75 848.800781 116.167969 845.734375 120.378906 M 465.933594 148.738281 C 461.066406 153.605469 461.398438 160.574219 466.75 165.925781 C 472.113281 171.289062 475.585938 171.5 480.335938 166.746094 C 486.460938 160.625 484.761719 151.988281 476.605469 147.773438 C 470.167969 144.441406 470.234375 144.433594 465.933594 148.738281 M 637.898438 152.351562 C 637.105469 154.851562 640.21875 162.363281 647.980469 176.691406 C 659.644531 198.214844 669.695312 211.765625 673.992188 211.765625 C 677.027344 211.765625 680.21875 206.207031 680.21875 200.921875 C 680.21875 193.613281 656.25 154.09375 649.6875 150.582031 C 644.210938 147.652344 639.148438 148.414062 637.898438 152.351562 M 498.359375 181.136719 C 496.371094 183.125 494.742188 186.308594 494.742188 188.207031 C 494.742188 198.640625 594.15625 301.429688 612.886719 310.359375 C 620.386719 313.933594 625.28125 310.980469 623.515625 303.949219 C 620.5625 292.171875 597.136719 263.53125 557.964844 223.792969 C 527.34375 192.734375 517.347656 183.9375 508.445312 180.21875 C 502.398438 177.691406 501.746094 177.75 498.359375 181.136719 M 824.535156 184.589844 C 820.609375 187.019531 807.347656 225.757812 804.121094 244.222656 C 800.996094 262.136719 804.726562 270.464844 813.722656 265.652344 C 827.539062 258.257812 845.652344 198.027344 837.144531 187.773438 C 834.691406 184.816406 827.222656 182.933594 824.535156 184.589844 M 1084.855469 209.769531 C 1069.898438 217.398438 1001.046875 281.699219 976.445312 311.023438 C 964.269531 325.539062 953.925781 341.921875 953.925781 346.695312 C 953.925781 350.230469 960.65625 352.3125 965.785156 350.363281 C 968.472656 349.339844 985.746094 333.738281 1004.167969 315.691406 C 1022.585938 297.648438 1050.328125 270.730469 1065.8125 255.878906 C 1091.796875 230.953125 1101.5625 219.558594 1101.578125 214.144531 C 1101.585938 211.375 1096.535156 206.363281 1093.734375 206.363281 C 1092.53125 206.363281 1088.535156 207.894531 1084.855469 209.769531 M 877.890625 227.175781 C 864.371094 234.515625 868.992188 249.578125 884.765625 249.578125 C 890.234375 249.578125 898.105469 242.144531 898.105469 236.972656 C 898.105469 232.328125 890.414062 224.34375 886.03125 224.441406 C 884.253906 224.480469 880.589844 225.710938 877.890625 227.175781 M 653.636719 241.390625 C 642.535156 250.730469 643.535156 267.015625 655.972656 279.449219 C 662.683594 286.160156 665.019531 287.394531 671.027344 287.394531 C 676.042969 287.394531 679.765625 286.027344 683.644531 282.761719 C 700.335938 268.71875 690.324219 239.5625 668.082031 237.425781 C 660.5625 236.703125 658.550781 237.253906 653.636719 241.390625 M 448.566406 269.3125 C 442.527344 271.84375 438.921875 278.484375 438.921875 287.074219 C 438.921875 303.542969 458.425781 313.488281 470.445312 303.148438 C 479.390625 295.453125 477.890625 277.949219 467.746094 271.613281 C 463.046875 268.679688 452.96875 267.472656 448.566406 269.3125 M 862.746094 340.503906 C 862.121094 342.128906 862.476562 344.320312 863.53125 345.378906 C 866.273438 348.121094 871.472656 345.613281 870.753906 341.894531 C 869.957031 337.746094 864.1875 336.746094 862.746094 340.503906 M 499.546875 351.621094 C 498.886719 352.28125 498.34375 355.167969 498.34375 358.039062 C 498.34375 362.816406 499.601562 363.84375 513.199219 370.167969 C 545.636719 385.25 561.371094 388.003906 561.371094 378.609375 C 561.371094 373.414062 556.132812 368.515625 543.109375 361.527344 C 526.589844 352.664062 503.707031 347.460938 499.546875 351.621094 M 1098.546875 367.539062 C 1080.523438 372.472656 1060.191406 381.316406 1046.851562 390.027344 C 1032.238281 399.566406 1027.148438 405.519531 1028.066406 411.988281 C 1028.894531 417.84375 1038.046875 418.371094 1050.914062 413.308594 C 1069.984375 405.804688 1107.160156 385.871094 1114.734375 379.085938 C 1121.109375 373.375 1121.980469 371.792969 1120.3125 369.019531 C 1117.777344 364.808594 1110.355469 364.304688 1098.546875 367.539062 M 275.953125 369.105469 C 271.035156 372.703125 268.195312 392.425781 265.875 439.097656 C 261.738281 522.175781 271.140625 567.546875 304.390625 625.027344 C 314.589844 642.65625 364.839844 718.476562 373.964844 730.003906 C 382.253906 740.476562 401.460938 755.582031 406.488281 755.582031 C 408.238281 755.582031 410.628906 754.421875 411.800781 753.007812 C 414.875 749.304688 411.527344 743.804688 391.992188 720.46875 C 364.410156 687.519531 348.378906 664.785156 322.46875 621.859375 C 286.617188 562.46875 281.648438 547.484375 278.453125 489.074219 C 276.285156 449.421875 277.203125 413.003906 280.878906 392.738281 L 283.164062 380.132812 L 289.464844 380.492188 C 292.929688 380.691406 316.832031 387.816406 342.582031 396.328125 C 368.332031 404.839844 404.796875 416.265625 423.613281 421.71875 C 442.433594 427.171875 459.855469 432.308594 462.332031 433.132812 C 464.804688 433.960938 470.074219 435.550781 474.035156 436.671875 C 496.980469 443.152344 567.941406 463.421875 602.785156 473.453125 C 659.226562 489.695312 738.210938 511.25 762.601562 517.0625 C 778.078125 520.75 778.179688 521.074219 770.097656 540.496094 C 757.910156 569.765625 727.832031 612.140625 695.539062 645.523438 C 646.003906 696.734375 607.335938 718.230469 519.953125 743.136719 C 475.761719 755.730469 474.039062 756.605469 479.328125 763.84375 C 481.558594 766.890625 482.929688 766.753906 506.667969 761.117188 C 560.949219 748.230469 603.820312 731.191406 636.242188 709.621094 C 680.476562 680.1875 725.675781 634.488281 756.421875 588.113281 C 771.472656 565.414062 788.222656 531.710938 788.246094 524.078125 C 788.285156 510.878906 779.351562 507.304688 685.621094 482.996094 C 664.324219 477.472656 621.378906 465.5625 590.179688 456.53125 C 558.984375 447.496094 527.578125 438.433594 520.394531 436.386719 C 513.210938 434.34375 507.671875 432.328125 508.089844 431.910156 C 508.507812 431.492188 514.792969 432.78125 522.054688 434.773438 C 567.847656 447.335938 569.332031 447.507812 568.25 440.167969 C 567.796875 437.105469 565.347656 435.582031 556.867188 433.101562 C 550.925781 431.367188 539.175781 427.898438 530.757812 425.402344 C 522.339844 422.902344 497.625 416.269531 475.835938 410.660156 C 454.046875 405.050781 431.511719 399.21875 425.757812 397.699219 C 418.3125 395.734375 414.734375 395.496094 413.363281 396.867188 C 410.089844 400.136719 412.988281 403.652344 420.902344 406.027344 C 429.886719 408.71875 429.8125 410.503906 420.824219 407.984375 C 373.390625 394.679688 347.417969 387.023438 327.054688 380.339844 C 304.3125 372.878906 296 370.449219 283.902344 367.746094 C 281.246094 367.152344 277.824219 367.738281 275.953125 369.105469 M 637.449219 372.425781 C 628.96875 376.515625 634.328125 390.8125 645.101562 392.84375 C 656.8125 395.046875 661.8125 382.449219 652.429688 374.378906 C 647.179688 369.867188 643.699219 369.410156 637.449219 372.425781 M 751.347656 384.347656 C 739.144531 391.800781 738.546875 405.296875 750.246094 409.101562 C 758.175781 411.683594 763.75 410.453125 769.308594 404.894531 C 775.570312 398.632812 775.484375 389.777344 769.109375 384.765625 C 763.265625 380.164062 758.375 380.050781 751.347656 384.347656 M 862.890625 420.773438 C 855.398438 422.945312 849.558594 429.617188 848.285156 437.449219 C 847.355469 443.179688 847.992188 444.722656 853.578125 450.3125 C 858.804688 455.539062 861.253906 456.660156 867.402344 456.660156 C 875.960938 456.660156 884.542969 452.808594 887.246094 447.757812 C 890.917969 440.898438 889.457031 431.53125 883.835938 425.910156 C 880.941406 423.015625 877.363281 420.648438 875.882812 420.648438 C 874.398438 420.648438 872.109375 420.316406 870.789062 419.910156 C 869.472656 419.503906 865.917969 419.894531 862.890625 420.773438 M 945.886719 438.582031 C 938.746094 446.476562 950.03125 458.035156 960.308594 453.351562 C 964.460938 451.460938 965.617188 448.625 964.820312 442.257812 C 963.917969 435.035156 951.3125 432.589844 945.886719 438.582031 M 584.78125 445.636719 C 584.78125 447.496094 585.792969 449.855469 587.03125 450.878906 C 589.464844 452.894531 628.910156 464.257812 682.019531 478.242188 C 690.4375 480.457031 710.804688 486.234375 727.277344 491.074219 C 761.683594 501.1875 763.53125 501.441406 762.726562 495.953125 C 762.035156 491.25 758.480469 489.757812 712.628906 474.933594 C 653.691406 455.878906 603.070312 442.257812 591.214844 442.257812 C 586.117188 442.257812 584.78125 442.960938 584.78125 445.636719 M 1192.648438 448.6875 C 1188.832031 452.507812 1189.074219 460.832031 1193.113281 464.484375 C 1200.070312 470.78125 1209.628906 466.253906 1209.628906 456.660156 C 1209.628906 450.414062 1205.453125 445.859375 1199.722656 445.859375 C 1197.390625 445.859375 1194.207031 447.128906 1192.648438 448.6875 M 1078.894531 462.785156 C 1063.757812 477.921875 1077.574219 499.597656 1096.21875 489.957031 C 1102.859375 486.523438 1105.1875 482.179688 1105.1875 473.230469 C 1105.1875 467.988281 1103.957031 464.925781 1100.441406 461.410156 C 1093.6875 454.65625 1086.570312 455.113281 1078.894531 462.785156 M 1205.125 529.765625 C 1180.558594 534.125 1153.917969 539.371094 1128.597656 544.84375 C 1115.226562 547.734375 1092.535156 552.609375 1078.175781 555.675781 C 1028.390625 566.3125 986.976562 575.890625 934.117188 588.988281 C 885.65625 601 856.066406 607.820312 781.058594 624.261719 C 753.601562 630.285156 736.71875 636.464844 734.917969 641.160156 C 734.328125 642.703125 735.132812 645.929688 736.707031 648.335938 L 739.570312 652.707031 L 751.761719 649.195312 C 792.410156 637.484375 1123.496094 560.695312 1130.722656 561.304688 C 1133.644531 561.546875 1118.949219 565.351562 1096.183594 570.242188 C 1077.089844 574.34375 1072.039062 577.347656 1076.582031 581.890625 C 1079.859375 585.164062 1088.417969 583.714844 1136.699219 571.695312 C 1196.773438 556.738281 1237.53125 543.671875 1243.023438 537.601562 C 1251.890625 527.804688 1235.410156 524.398438 1205.125 529.765625 M 1255.007812 538.054688 C 1253.496094 539.566406 1252.839844 549.457031 1252.828125 570.917969 C 1252.789062 651.03125 1242.714844 695.222656 1210.398438 756.996094 C 1204.03125 769.164062 1198.824219 780.207031 1198.824219 781.535156 C 1198.824219 782.867188 1200.0625 784.980469 1201.578125 786.238281 C 1205.960938 789.875 1211.515625 783.140625 1223.644531 759.492188 C 1244.191406 719.421875 1258.089844 671.78125 1264.683594 618.792969 C 1267.25 598.171875 1268.167969 547.601562 1266.117188 539.945312 C 1264.914062 535.464844 1258.660156 534.402344 1255.007812 538.054688 M 957.527344 543.097656 C 955.546875 545.078125 953.925781 548.191406 953.925781 550.019531 C 953.925781 554.378906 959.496094 559.300781 964.421875 559.300781 C 968.90625 559.300781 975.535156 553.394531 975.535156 549.398438 C 975.535156 545.523438 968.960938 539.496094 964.730469 539.496094 C 962.75 539.496094 959.507812 541.117188 957.527344 543.097656 M 859.515625 544.125 C 857.960938 545.683594 856.6875 547.648438 856.6875 548.5 C 856.6875 550.808594 862.03125 555.703125 864.558594 555.703125 C 870.972656 555.703125 873.285156 546.195312 867.609375 543.160156 C 863.105469 540.75 862.867188 540.777344 859.515625 544.125 M 667.613281 547.925781 C 621.230469 555.542969 607.644531 557.511719 590.179688 559.15625 C 543.867188 563.511719 501.671875 565.0625 446.125 564.449219 L 387.601562 563.804688 L 387.601562 568.234375 C 387.601562 574.140625 391.539062 574.894531 435.84375 577.484375 C 481.875 580.171875 530.34375 577.707031 598.351562 569.207031 C 687.96875 558.011719 692.78125 556.980469 689.960938 549.628906 C 688.84375 546.722656 679.347656 546 667.613281 547.925781 M 1236.59375 568.628906 C 1236.527344 587.257812 1233.726562 615.125 1230.070312 633.597656 C 1226.835938 649.910156 1227.738281 654.667969 1233.644531 652.402344 C 1239.167969 650.28125 1246.636719 597.125 1245.332031 569.207031 C 1244.792969 557.714844 1244.382812 556.550781 1240.691406 556.027344 C 1236.808594 555.472656 1236.636719 556.003906 1236.59375 568.628906 M 312.332031 565.320312 C 309.996094 571.402344 320.027344 575.011719 341.683594 575.871094 C 354.339844 576.375 355.222656 576.167969 355.742188 572.523438 C 356.375 568.074219 354.972656 567.632812 330.925781 564.742188 C 312.089844 562.472656 313.4375 562.433594 312.332031 565.320312 M 1204.027344 567.855469 C 1203.917969 568.601562 1203.96875 581.363281 1204.144531 596.21875 C 1204.835938 655.988281 1190.339844 728.472656 1167.878906 777.550781 C 1162.125 790.125 1162.128906 795.195312 1167.898438 795.195312 C 1170.464844 795.195312 1173.074219 791.109375 1178.542969 778.539062 C 1197.136719 735.800781 1209.554688 681.304688 1213.332031 625.929688 C 1215.21875 598.246094 1214.351562 575.714844 1211.160156 569.65625 C 1209.519531 566.539062 1204.410156 565.25 1204.027344 567.855469 M 651.40625 586.3125 C 647.070312 590.648438 646.902344 593.226562 650.609375 598.515625 C 654.105469 603.515625 661.03125 603.699219 665.8125 598.917969 C 670.171875 594.558594 670.269531 592.894531 666.503906 587.152344 C 662.945312 581.71875 656.363281 581.355469 651.40625 586.3125 M 1161.761719 596.507812 C 1164.5 615.09375 1166.285156 640.359375 1166.347656 661.386719 C 1166.382812 673.460938 1167.148438 683.796875 1168.050781 684.351562 C 1168.949219 684.90625 1171.085938 684.828125 1172.800781 684.167969 C 1175.65625 683.074219 1175.824219 679.949219 1174.847656 645.898438 C 1173.613281 602.792969 1171.25 589.328125 1164.757812 588.402344 C 1160.609375 587.8125 1160.515625 588.066406 1161.761719 596.507812 M 553.511719 593.964844 C 547.234375 599.675781 546.425781 604.285156 550.53125 611.03125 C 559.210938 625.308594 579.109375 617.847656 575.089844 601.828125 C 572.242188 590.488281 561.605469 586.609375 553.511719 593.964844 M 998.945312 595.277344 C 986.566406 598.074219 968.933594 602.484375 959.765625 605.074219 C 939.238281 610.875 872.378906 627.484375 843.183594 634.035156 C 802.738281 643.113281 798.164062 644.148438 789.402344 646.238281 C 780.558594 648.34375 777.246094 651.652344 780.609375 655.011719 C 784.171875 658.578125 879.8125 637.164062 975.359375 611.417969 C 986.65625 608.371094 1003.941406 604.410156 1013.773438 602.613281 C 1032.464844 599.195312 1036.152344 597.425781 1034.355469 592.738281 C 1032.832031 588.769531 1025.367188 589.300781 998.945312 595.277344 M 557.769531 604.128906 C 557.769531 607.90625 562.890625 610.722656 565.332031 608.28125 C 567.773438 605.84375 564.957031 600.71875 561.175781 600.71875 C 559.03125 600.71875 557.769531 601.984375 557.769531 604.128906 M 430.328125 610.136719 C 424.734375 612.832031 423.242188 619.734375 427.28125 624.199219 C 433.949219 631.566406 447.925781 626.074219 447.925781 616.089844 C 447.925781 608.871094 439.128906 605.894531 430.328125 610.136719 M 488.195312 634.019531 C 487.574219 635.644531 487.925781 637.839844 488.980469 638.894531 C 491.726562 641.640625 496.921875 639.128906 496.207031 635.410156 C 495.40625 631.265625 489.636719 630.261719 488.195312 634.019531 M 574.660156 635.746094 C 573.402344 639.015625 575.226562 642.136719 578.390625 642.136719 C 581.675781 642.136719 583.152344 637.625 580.675781 635.152344 C 577.933594 632.410156 575.863281 632.613281 574.660156 635.746094 M 728.957031 663.515625 C 725.871094 669.28125 726.476562 671.363281 737.757812 693.902344 C 758.089844 734.519531 778.792969 762.742188 813.386719 796.996094 C 852.484375 835.710938 900.535156 868.929688 955.726562 895.386719 C 975.136719 904.695312 990.566406 910.148438 1003.394531 912.234375 C 1015.433594 914.195312 1018.753906 913.230469 1018.753906 907.78125 C 1018.753906 904.433594 1017.230469 903.3125 1010.199219 901.492188 C 969.234375 890.875 944.679688 880.148438 905.285156 855.652344 C 873.820312 836.089844 849.347656 816.304688 822.894531 789.046875 C 789.253906 754.386719 761.707031 715.566406 745.515625 679.996094 C 742.121094 672.542969 738.71875 665.230469 737.949219 663.746094 C 735.816406 659.621094 731.109375 659.5 728.957031 663.515625 M 534.492188 668.488281 C 530.019531 674.175781 529.996094 674.457031 533.5625 679.550781 C 539.703125 688.316406 555.535156 681.660156 553.015625 671.371094 C 551.566406 665.445312 549.421875 663.808594 543.042969 663.769531 C 539.957031 663.753906 536.878906 665.453125 534.492188 668.488281 M 754.21875 667.238281 C 751.402344 668.980469 752.746094 674.277344 756.257812 675.292969 C 757.515625 675.65625 767.058594 677.730469 777.457031 679.898438 C 787.855469 682.070312 802.546875 685.710938 810.105469 687.988281 C 824.316406 692.273438 828.6875 691.804688 827.589844 686.109375 C 826.703125 681.496094 819.503906 679.394531 760.335938 666.484375 C 758.34375 666.050781 755.59375 666.390625 754.21875 667.238281 M 426.34375 686.625 C 419.578125 695.226562 424.980469 705.882812 436.105469 705.882812 C 444.332031 705.882812 449.726562 700.890625 449.726562 693.28125 C 449.726562 681.777344 433.738281 677.226562 426.34375 686.625 M 266.050781 688.421875 C 260.988281 690.261719 253.535156 698.539062 251.566406 704.507812 C 246.421875 720.085938 264.675781 730.382812 279.835938 720.449219 C 285.734375 716.585938 291.246094 707.210938 291.253906 701.027344 C 291.265625 693.484375 284.003906 687.121094 275.585938 687.296875 C 271.828125 687.375 267.539062 687.882812 266.050781 688.421875 M 868.691406 688.355469 C 863.3125 693.734375 877.722656 703.167969 909.117188 714.820312 C 962.347656 734.570312 1052.328125 750.144531 1116.875 750.777344 L 1147.503906 751.078125 L 1147.503906 746.660156 C 1147.503906 740.757812 1143.527344 740.085938 1099.789062 738.578125 C 1053.699219 736.988281 1024.101562 732.9375 979.136719 722.054688 C 945.273438 713.863281 890.457031 696.390625 880.445312 690.597656 C 874.222656 687 870.71875 686.328125 868.691406 688.355469 M 512.300781 711.898438 C 507.253906 713.066406 508.308594 719.566406 513.542969 719.566406 C 515.964844 719.566406 518.488281 718.679688 519.160156 717.59375 C 520.835938 714.882812 516.160156 711.003906 512.300781 711.898438 M 927.878906 744.675781 C 926.140625 747.488281 928.425781 750.179688 932.554688 750.179688 C 935.03125 750.179688 935.992188 749.183594 935.582031 747.046875 C 934.890625 743.460938 929.628906 741.839844 927.878906 744.675781 M 987.101562 750.789062 C 986.507812 752.339844 986.539062 754.445312 987.171875 755.472656 C 989.246094 758.828125 1012.179688 764.636719 1025.054688 765.066406 C 1036.597656 765.449219 1037.660156 765.183594 1037.660156 761.882812 C 1037.660156 758.894531 1035.976562 758.039062 1027.757812 756.835938 C 1018.410156 755.476562 1001.140625 751.734375 992.214844 749.140625 C 989.429688 748.332031 987.847656 748.839844 987.101562 750.789062 M 958.671875 762.914062 C 953.007812 767.367188 952.617188 772.277344 957.527344 777.191406 C 961.558594 781.222656 971.75 782.054688 975.175781 778.628906 C 976.363281 777.441406 977.335938 773.519531 977.335938 769.917969 C 977.335938 764.640625 976.441406 762.953125 972.75 761.273438 C 966.371094 758.367188 964.121094 758.628906 958.671875 762.914062 M 402.089844 766.835938 C 401.703125 768.074219 400.878906 774.351562 400.257812 780.789062 C 399.226562 791.480469 392.921875 828.554688 385.5625 867.226562 C 383.960938 875.644531 381.082031 887.394531 379.167969 893.335938 C 377.253906 899.277344 369.675781 924.851562 362.324219 950.167969 C 350.832031 989.757812 344.804688 1008.25 331.746094 1044.019531 C 330.414062 1047.664062 323.570312 1062.617188 316.539062 1077.253906 C 309.5 1091.886719 303.988281 1105.113281 304.28125 1106.640625 C 304.585938 1108.222656 306.671875 1109.421875 309.117188 1109.421875 C 323.265625 1109.421875 367.996094 995.792969 386.734375 912.242188 C 390.621094 894.910156 395.460938 875.058594 397.484375 868.125 C 411.613281 819.777344 417.667969 778.761719 412.179688 768.636719 C 409.824219 764.292969 403.25 763.121094 402.089844 766.835938 M 1107.808594 781.609375 C 1105.375 784.042969 1103.386719 787.320312 1103.386719 788.894531 C 1103.386719 793.183594 1111.640625 800.597656 1116.410156 800.597656 C 1122.882812 800.597656 1128.597656 795.675781 1128.597656 790.09375 C 1128.597656 777.851562 1116.5 772.914062 1107.808594 781.609375 M 450.253906 787.710938 C 445.207031 790.945312 413.046875 873.9375 390.480469 941.957031 C 367.355469 1011.664062 357.789062 1057.601562 357.992188 1097.949219 C 358.128906 1124.894531 359.546875 1132.832031 364.222656 1132.832031 C 367.632812 1132.832031 367.796875 1131.507812 367.910156 1103.121094 C 368.042969 1069.820312 370.746094 1050.03125 380.589844 1010.382812 C 390.429688 970.722656 425.828125 867.363281 448.640625 811.660156 C 453.199219 800.53125 456.929688 790.738281 456.929688 789.902344 C 456.929688 787.757812 452.464844 786.292969 450.253906 787.710938 M 659.300781 792.746094 C 654.1875 797.257812 650.738281 806.699219 652.152344 812.324219 C 653.453125 817.511719 662.820312 823.992188 669.035156 824 C 674.828125 824.011719 686.917969 817.503906 689.269531 813.117188 C 692.398438 807.265625 690.664062 798.65625 685.59375 794.890625 C 683.105469 793.039062 677.023438 791.046875 672.082031 790.460938 C 664.863281 789.605469 662.351562 790.058594 659.300781 792.746094 M 1026.40625 805.515625 C 1025.167969 805.945312 1024.15625 807.765625 1024.15625 809.558594 C 1024.15625 813.0625 1027.261719 814.960938 1030.90625 813.6875 C 1032.144531 813.257812 1033.15625 811.4375 1033.15625 809.644531 C 1033.15625 806.144531 1030.050781 804.242188 1026.40625 805.515625 M 1084.3125 821.085938 C 1082.855469 824.886719 1084.902344 827.609375 1089.210938 827.609375 C 1091.933594 827.609375 1092.691406 826.605469 1092.257812 823.574219 C 1091.585938 818.867188 1085.855469 817.074219 1084.3125 821.085938 M 1139.492188 859.363281 C 1121.0625 878.097656 1104.578125 896.382812 1102.863281 900 C 1089.941406 927.230469 1096.953125 1006.109375 1120.515625 1098.617188 C 1140.640625 1177.613281 1156.828125 1224.03125 1172.476562 1247.605469 C 1185.589844 1267.359375 1204.960938 1280.972656 1225.835938 1285.101562 C 1231.28125 1286.179688 1247.488281 1287.078125 1261.847656 1287.097656 C 1290.136719 1287.140625 1313.859375 1290.339844 1326.125 1295.765625 C 1332.753906 1298.695312 1333.878906 1299.972656 1333.878906 1304.546875 C 1333.878906 1311.617188 1325.027344 1318.617188 1302.933594 1329.023438 C 1270.042969 1344.519531 1226.09375 1359.730469 1169.15625 1375.324219 C 1145.207031 1381.886719 1143 1382.988281 1143 1388.402344 C 1143 1397.105469 1150.445312 1396.132812 1191.359375 1382.070312 C 1205.863281 1377.085938 1236.367188 1366.882812 1259.148438 1359.390625 C 1315.828125 1340.753906 1334.796875 1330.894531 1341.226562 1316.742188 C 1352.878906 1291.082031 1332.65625 1276.128906 1286.484375 1276.257812 C 1267.144531 1276.3125 1254.046875 1274.773438 1234.839844 1270.191406 C 1190.183594 1259.535156 1173.382812 1237.144531 1159.128906 1169.292969 C 1153.414062 1142.085938 1149.496094 1127.664062 1133.3125 1074.308594 C 1116.058594 1017.410156 1110.296875 990.597656 1109.308594 962.664062 C 1107.675781 916.363281 1117.863281 894.148438 1160.488281 851.085938 C 1170.742188 840.722656 1178.90625 831.070312 1178.625 829.625 C 1177.238281 822.488281 1171.414062 826.917969 1139.492188 859.363281 M 975.535156 829.929688 C 969.902344 832.761719 968.589844 840.925781 972.976562 845.773438 C 977.144531 850.378906 987.066406 850.292969 991.742188 845.617188 C 997.359375 840 995.992188 834.371094 988.011719 830.242188 C 981.863281 827.066406 981.253906 827.050781 975.535156 829.929688 M 1104.183594 842.75 C 1082.996094 853.808594 1057.519531 860.101562 1031.875 860.609375 C 1017.535156 860.894531 1016.050781 861.25 1016.050781 864.410156 C 1016.050781 869.988281 1025.882812 871.503906 1046.863281 869.15625 C 1070.089844 866.5625 1091.707031 860.601562 1108.808594 852.078125 C 1124.332031 844.34375 1129.5625 839.925781 1128 835.863281 C 1126.398438 831.683594 1124.132812 832.339844 1104.183594 842.75 M 1097.984375 872.84375 C 1086.300781 879.90625 1061.21875 888.8125 1052.871094 888.859375 C 1044.132812 888.90625 1040.144531 890.898438 1040.71875 894.921875 C 1041.199219 898.316406 1042.261719 898.679688 1050.265625 898.203125 C 1063.398438 897.417969 1078.917969 892.917969 1095.28125 885.148438 C 1111.441406 877.480469 1118.171875 872.109375 1116.636719 868.113281 C 1115.066406 864.015625 1110.792969 865.101562 1097.984375 872.84375 M 825.476562 872.027344 C 824.816406 872.6875 824.273438 876.210938 824.273438 879.851562 C 824.273438 887.242188 829.15625 893.148438 834.429688 892.132812 C 838.570312 891.332031 842.339844 879.550781 838.832031 878.382812 C 837.535156 877.945312 835.167969 876.070312 833.574219 874.210938 C 830.59375 870.730469 827.585938 869.917969 825.476562 872.027344 M 1046.957031 936.433594 C 1046.414062 937.855469 1048.226562 941.855469 1050.980469 945.324219 C 1063.53125 961.117188 1086.792969 1035.464844 1099.789062 1101.320312 C 1112.765625 1167.070312 1121.332031 1235.058594 1121.375 1272.691406 C 1121.398438 1291.269531 1122.226562 1293.996094 1127.855469 1293.996094 C 1133.878906 1293.996094 1134.949219 1288.566406 1134.613281 1259.78125 C 1134.160156 1220.964844 1127.378906 1165.628906 1117.835938 1122.925781 C 1109.886719 1087.347656 1088.8125 1010.550781 1078.917969 981.105469 C 1070.492188 956.011719 1065.160156 944.40625 1059.429688 938.679688 C 1054.148438 933.398438 1048.511719 932.382812 1046.957031 936.433594 M 269.652344 1112.324219 C 234.632812 1114.632812 192.5 1119.238281 179.617188 1122.171875 C 164.65625 1125.578125 154.632812 1131.253906 150.210938 1138.820312 C 147.117188 1144.121094 146.972656 1145.667969 148.9375 1152.324219 C 154.488281 1171.082031 185.046875 1189.808594 233.640625 1204.238281 C 261.554688 1212.523438 389.410156 1244.074219 408.039062 1247.269531 C 447.738281 1254.085938 468.875 1249.871094 472.257812 1234.46875 C 474.863281 1222.609375 460.683594 1205.859375 427.226562 1181.257812 C 416.59375 1173.441406 402.519531 1162.773438 395.945312 1157.554688 C 382.976562 1147.253906 375.484375 1145.609375 374.453125 1152.839844 C 373.800781 1157.40625 384.277344 1167.28125 407.65625 1184.140625 C 434.140625 1203.242188 448.746094 1215.800781 452.433594 1222.644531 C 455.769531 1228.839844 455.785156 1229.285156 452.765625 1232.304688 C 448.203125 1236.871094 422.144531 1237.578125 399.292969 1233.757812 C 365.957031 1228.183594 262.769531 1201.023438 230.039062 1189.210938 C 196.011719 1176.925781 165.980469 1159.347656 161.234375 1148.929688 C 159.601562 1145.351562 159.839844 1143.886719 162.519531 1140.921875 C 169.953125 1132.710938 193.457031 1128.886719 248.945312 1126.867188 C 290.4375 1125.355469 298.636719 1123.742188 299.96875 1116.828125 C 300.617188 1113.480469 297.414062 1110.164062 293.964844 1110.609375 C 292.972656 1110.738281 282.035156 1111.507812 269.652344 1112.324219 M 1178.371094 1283.265625 C 1171.578125 1286.203125 1161.699219 1289.117188 1156.414062 1289.738281 C 1146.777344 1290.871094 1143.878906 1293.183594 1146.59375 1297.582031 C 1148.910156 1301.328125 1165.824219 1298.695312 1181.566406 1292.144531 C 1193.078125 1287.347656 1195.324219 1285.75 1194.871094 1282.671875 C 1194.070312 1277.273438 1192.0625 1277.347656 1178.371094 1283.265625 M 1180.816406 1294.894531 C 1178.339844 1296.3125 1174.996094 1297.496094 1173.382812 1297.535156 C 1171.773438 1297.566406 1169.410156 1298.855469 1168.136719 1300.386719 C 1166.238281 1302.675781 1166.28125 1303.632812 1168.367188 1305.679688 C 1170.539062 1307.8125 1172.34375 1307.671875 1180.699219 1304.703125 C 1190.949219 1301.070312 1193.707031 1298.636719 1192.160156 1294.609375 C 1190.976562 1291.515625 1186.53125 1291.628906 1180.816406 1294.894531 M 1103.757812 1307.214844 C 1092.339844 1317.746094 1071.054688 1333.632812 1044.4375 1351.496094 C 1013.417969 1372.3125 1006.574219 1381.96875 1014.394531 1393.90625 C 1019.820312 1402.183594 1030.285156 1404.433594 1058.882812 1403.464844 C 1084.476562 1402.59375 1092.582031 1400.746094 1092.582031 1395.777344 C 1092.582031 1391.089844 1088.179688 1390.402344 1061.070312 1390.84375 C 1033.507812 1391.300781 1024.082031 1390.117188 1022.726562 1386.042969 C 1021.476562 1382.300781 1036.480469 1369.761719 1069.480469 1346.960938 C 1102.757812 1323.96875 1119.59375 1309.257812 1119.59375 1303.15625 C 1119.59375 1296.972656 1113.042969 1298.652344 1103.757812 1307.214844 M 1276.253906 1321.75 C 1259.347656 1330.375 1224.101562 1342.652344 1195.671875 1349.828125 C 1189.710938 1351.332031 1188.019531 1352.59375 1188.019531 1355.535156 C 1188.019531 1359.0625 1188.6875 1359.238281 1198.039062 1358.140625 C 1218.183594 1355.773438 1290.402344 1329.050781 1294.476562 1322.457031 C 1296.335938 1319.453125 1294.300781 1315.589844 1290.917969 1315.691406 C 1289.289062 1315.742188 1282.691406 1318.46875 1276.253906 1321.75 M 1116.890625 1329.257812 C 1096.820312 1345.640625 1079.785156 1362.800781 1080.40625 1366.019531 C 1081.359375 1370.972656 1086.773438 1368.820312 1096.480469 1359.628906 C 1101.761719 1354.625 1114.015625 1344.179688 1123.710938 1336.417969 C 1133.402344 1328.65625 1141.039062 1321.40625 1140.679688 1320.304688 C 1140.320312 1319.207031 1138.058594 1318.125 1135.660156 1317.902344 C 1132.605469 1317.621094 1126.976562 1321.027344 1116.890625 1329.257812 M 1209.5625 1322.410156 C 1191.585938 1333.703125 1176.4375 1338.714844 1154.929688 1340.5 C 1141.90625 1341.582031 1140.300781 1342.109375 1140.300781 1345.316406 C 1140.300781 1348.664062 1141.4375 1348.90625 1156.507812 1348.730469 C 1175.414062 1348.515625 1194.832031 1342.792969 1211.960938 1332.386719 C 1220 1327.503906 1222.304688 1325.164062 1221.882812 1322.304688 C 1221.066406 1316.789062 1218.480469 1316.8125 1209.5625 1322.410156 M 1096.183594 1373.542969 C 1077.261719 1377.589844 1074.574219 1378.679688 1074.574219 1382.300781 C 1074.574219 1386.515625 1080.519531 1386.816406 1096.585938 1383.421875 C 1108.824219 1380.835938 1112.230469 1378.277344 1108.851562 1374.203125 C 1107.582031 1372.675781 1106.039062 1371.511719 1105.417969 1371.617188 C 1104.792969 1371.726562 1100.640625 1372.589844 1096.183594 1373.542969 " fill-opacity="1" fill-rule="evenodd"/></svg>