<svg xmlns="http://www.w3.org/2000/svg" xmlns:xlink="http://www.w3.org/1999/xlink" width="2000" zoomAndPan="magnify" viewBox="0 0 1500 1499.999933" height="2000" preserveAspectRatio="xMidYMid meet" version="1.0"><defs><g/><clipPath id="ffe83965e3"><path d="M 474.335938 230 L 1022 230 L 1022 827.839844 L 474.335938 827.839844 Z M 474.335938 230 " clip-rule="nonzero"/></clipPath><clipPath id="3d8824a241"><rect x="0" width="1114" y="0" height="431"/></clipPath><clipPath id="080d71cd20"><rect x="0" width="812" y="0" height="96"/></clipPath></defs><g clip-path="url(#ffe83965e3)"><path fill="#ba9672" d="M 686.550781 231.121094 C 685.46875 232.203125 686.042969 234.8125 688.382812 239.445312 C 691.167969 244.960938 693.445312 247.285156 695.347656 246.554688 C 697.175781 245.851562 697.050781 243.546875 694.964844 239.386719 C 691.484375 232.460938 688.320312 229.351562 686.550781 231.121094 M 793.753906 240.65625 C 789.800781 246.082031 788.769531 248.527344 789.042969 251.816406 C 789.773438 260.605469 801.195312 250.417969 801.222656 240.953125 C 801.230469 239.320312 799.066406 237.230469 797.324219 237.183594 C 796.761719 237.167969 795.152344 238.730469 793.753906 240.65625 M 620.160156 253.617188 C 617.9375 255.84375 618.089844 259.027344 620.535156 261.472656 C 622.984375 263.925781 624.574219 264.019531 626.746094 261.847656 C 629.542969 259.050781 628.765625 255.105469 625.039062 253.175781 C 622.097656 251.65625 622.128906 251.652344 620.160156 253.617188 M 698.757812 255.269531 C 698.398438 256.410156 699.820312 259.847656 703.367188 266.394531 C 708.699219 276.234375 713.292969 282.425781 715.257812 282.425781 C 716.644531 282.425781 718.101562 279.886719 718.101562 277.46875 C 718.101562 274.128906 707.148438 256.066406 704.148438 254.460938 C 701.644531 253.121094 699.332031 253.46875 698.757812 255.269531 M 634.984375 268.425781 C 634.074219 269.335938 633.328125 270.789062 633.328125 271.65625 C 633.328125 276.425781 678.765625 323.40625 687.328125 327.488281 C 690.753906 329.125 692.992188 327.773438 692.1875 324.558594 C 690.835938 319.175781 680.128906 306.085938 662.226562 287.921875 C 648.230469 273.726562 643.660156 269.707031 639.59375 268.007812 C 636.828125 266.851562 636.53125 266.878906 634.984375 268.425781 M 784.066406 270.003906 C 782.269531 271.113281 776.207031 288.820312 774.734375 297.261719 C 773.304688 305.449219 775.011719 309.253906 779.121094 307.054688 C 785.4375 303.675781 793.714844 276.144531 789.828125 271.460938 C 788.707031 270.109375 785.292969 269.246094 784.066406 270.003906 M 903.046875 281.515625 C 896.210938 285 864.742188 314.390625 853.496094 327.792969 C 847.929688 334.425781 843.203125 341.914062 843.203125 344.097656 C 843.203125 345.710938 846.28125 346.664062 848.625 345.773438 C 849.851562 345.304688 857.746094 338.175781 866.167969 329.925781 C 874.585938 321.679688 887.265625 309.375 894.34375 302.585938 C 906.21875 291.195312 910.683594 285.988281 910.691406 283.511719 C 910.695312 282.246094 908.386719 279.957031 907.105469 279.957031 C 906.554688 279.957031 904.726562 280.65625 903.046875 281.515625 M 808.449219 289.46875 C 802.269531 292.824219 804.382812 299.707031 811.59375 299.707031 C 814.09375 299.707031 817.691406 296.308594 817.691406 293.949219 C 817.691406 291.824219 814.175781 288.175781 812.171875 288.21875 C 811.359375 288.238281 809.683594 288.800781 808.449219 289.46875 M 705.953125 295.964844 C 700.878906 300.234375 701.335938 307.675781 707.019531 313.359375 C 710.085938 316.429688 711.15625 316.992188 713.902344 316.992188 C 716.195312 316.992188 717.894531 316.367188 719.667969 314.875 C 727.296875 308.457031 722.722656 295.132812 712.554688 294.152344 C 709.117188 293.824219 708.199219 294.074219 705.953125 295.964844 M 612.222656 308.726562 C 609.464844 309.886719 607.816406 312.917969 607.816406 316.847656 C 607.816406 324.375 616.730469 328.917969 622.222656 324.191406 C 626.3125 320.675781 625.625 312.675781 620.988281 309.78125 C 618.84375 308.4375 614.234375 307.886719 612.222656 308.726562 M 801.527344 341.265625 C 801.242188 342.007812 801.40625 343.011719 801.886719 343.496094 C 803.140625 344.75 805.515625 343.601562 805.1875 341.902344 C 804.824219 340.007812 802.1875 339.550781 801.527344 341.265625 M 635.523438 346.347656 C 635.222656 346.648438 634.976562 347.96875 634.976562 349.28125 C 634.976562 351.464844 635.550781 351.933594 641.765625 354.824219 C 656.589844 361.71875 663.78125 362.976562 663.78125 358.683594 C 663.78125 356.308594 661.386719 354.070312 655.433594 350.875 C 647.882812 346.824219 637.425781 344.445312 635.523438 346.347656 M 909.304688 353.625 C 901.066406 355.878906 891.773438 359.921875 885.675781 363.902344 C 878.996094 368.261719 876.671875 370.980469 877.089844 373.941406 C 877.46875 376.613281 881.652344 376.855469 887.53125 374.542969 C 896.25 371.113281 913.242188 362.003906 916.703125 358.902344 C 919.617188 356.289062 920.015625 355.566406 919.25 354.300781 C 918.09375 352.375 914.699219 352.144531 909.304688 353.625 M 533.328125 354.339844 C 531.082031 355.984375 529.785156 364.996094 528.722656 386.332031 C 526.832031 424.300781 531.128906 445.039062 546.328125 471.3125 C 550.988281 479.367188 573.953125 514.023438 578.125 519.292969 C 581.914062 524.078125 590.695312 530.980469 592.992188 530.980469 C 593.789062 530.980469 594.882812 530.453125 595.421875 529.808594 C 596.824219 528.113281 595.296875 525.597656 586.363281 514.933594 C 573.757812 499.875 566.433594 489.484375 554.589844 469.863281 C 538.203125 442.71875 535.933594 435.867188 534.472656 409.171875 C 533.480469 391.050781 533.898438 374.40625 535.582031 365.140625 L 536.625 359.378906 L 539.503906 359.542969 C 541.089844 359.632812 552.011719 362.890625 563.78125 366.78125 C 575.550781 370.671875 592.21875 375.894531 600.820312 378.386719 C 609.421875 380.878906 617.382812 383.226562 618.515625 383.605469 C 619.644531 383.980469 622.054688 384.707031 623.863281 385.222656 C 634.351562 388.183594 666.785156 397.449219 682.710938 402.03125 C 708.507812 409.457031 744.609375 419.308594 755.757812 421.964844 C 762.828125 423.652344 762.878906 423.796875 759.183594 432.675781 C 753.613281 446.054688 739.863281 465.421875 725.105469 480.679688 C 702.464844 504.085938 684.789062 513.910156 644.851562 525.292969 C 624.652344 531.050781 623.867188 531.453125 626.285156 534.757812 C 627.304688 536.152344 627.929688 536.089844 638.78125 533.511719 C 663.589844 527.621094 683.183594 519.835938 698 509.976562 C 718.21875 496.523438 738.878906 475.636719 752.933594 454.441406 C 759.8125 444.0625 767.464844 428.660156 767.476562 425.171875 C 767.496094 419.140625 763.414062 417.503906 720.570312 406.394531 C 710.839844 403.871094 691.210938 398.425781 676.949219 394.296875 C 662.691406 390.167969 648.335938 386.027344 645.054688 385.089844 C 641.769531 384.15625 639.238281 383.234375 639.429688 383.046875 C 639.621094 382.855469 642.492188 383.441406 645.8125 384.355469 C 666.742188 390.09375 667.421875 390.175781 666.925781 386.820312 C 666.71875 385.417969 665.601562 384.722656 661.722656 383.589844 C 659.007812 382.796875 653.636719 381.210938 649.789062 380.070312 C 645.941406 378.929688 634.644531 375.898438 624.6875 373.332031 C 614.730469 370.769531 604.429688 368.101562 601.796875 367.410156 C 598.394531 366.511719 596.761719 366.402344 596.132812 367.027344 C 594.636719 368.523438 595.960938 370.128906 599.578125 371.214844 C 603.6875 372.445312 603.652344 373.261719 599.542969 372.109375 C 577.863281 366.027344 565.992188 362.527344 556.683594 359.472656 C 546.292969 356.0625 542.492188 354.953125 536.960938 353.71875 C 535.75 353.445312 534.183594 353.714844 533.328125 354.339844 M 698.554688 355.855469 C 694.679688 357.726562 697.128906 364.261719 702.054688 365.1875 C 707.40625 366.195312 709.691406 360.4375 705.402344 356.75 C 703.003906 354.6875 701.410156 354.480469 698.554688 355.855469 M 750.613281 361.304688 C 745.035156 364.714844 744.761719 370.882812 750.109375 372.621094 C 753.734375 373.800781 756.28125 373.238281 758.824219 370.699219 C 761.683594 367.835938 761.644531 363.789062 758.730469 361.496094 C 756.058594 359.394531 753.824219 359.34375 750.613281 361.304688 M 801.59375 377.953125 C 798.167969 378.949219 795.5 381.996094 794.917969 385.578125 C 794.492188 388.195312 794.785156 388.902344 797.339844 391.457031 C 799.726562 393.84375 800.847656 394.359375 803.65625 394.359375 C 807.566406 394.359375 811.492188 392.597656 812.726562 390.289062 C 814.40625 387.152344 813.738281 382.871094 811.167969 380.304688 C 809.84375 378.980469 808.210938 377.898438 807.53125 377.898438 C 806.855469 377.898438 805.808594 377.746094 805.207031 377.5625 C 804.601562 377.375 802.976562 377.554688 801.59375 377.953125 M 839.53125 386.09375 C 836.265625 389.703125 841.421875 394.984375 846.121094 392.84375 C 848.019531 391.980469 848.546875 390.683594 848.183594 387.773438 C 847.769531 384.472656 842.007812 383.355469 839.53125 386.09375 M 674.480469 389.320312 C 674.480469 390.167969 674.945312 391.246094 675.511719 391.714844 C 676.625 392.636719 694.652344 397.828125 718.925781 404.222656 C 722.773438 405.234375 732.082031 407.875 739.613281 410.085938 C 755.335938 414.707031 756.179688 414.824219 755.8125 412.316406 C 755.5 410.167969 753.875 409.484375 732.917969 402.710938 C 705.976562 394 682.839844 387.773438 677.421875 387.773438 C 675.09375 387.773438 674.480469 388.09375 674.480469 389.320312 M 952.316406 390.710938 C 950.570312 392.460938 950.679688 396.261719 952.527344 397.933594 C 955.707031 400.8125 960.074219 398.742188 960.074219 394.359375 C 960.074219 391.503906 958.167969 389.417969 955.546875 389.417969 C 954.480469 389.417969 953.027344 390 952.316406 390.710938 M 900.324219 397.15625 C 893.402344 404.074219 899.71875 413.984375 908.238281 409.574219 C 911.273438 408.007812 912.339844 406.023438 912.339844 401.933594 C 912.339844 399.535156 911.777344 398.136719 910.167969 396.527344 C 907.082031 393.441406 903.828125 393.648438 900.324219 397.15625 M 958.015625 427.773438 C 946.789062 429.761719 934.613281 432.160156 923.039062 434.664062 C 916.925781 435.984375 906.558594 438.210938 899.992188 439.613281 C 877.238281 444.472656 858.308594 448.851562 834.148438 454.839844 C 812 460.328125 798.476562 463.445312 764.191406 470.960938 C 751.640625 473.714844 743.925781 476.539062 743.105469 478.683594 C 742.832031 479.390625 743.203125 480.867188 743.921875 481.964844 L 745.230469 483.960938 L 750.800781 482.355469 C 769.378906 477.003906 920.707031 441.910156 924.011719 442.1875 C 925.347656 442.296875 918.628906 444.035156 908.222656 446.269531 C 899.496094 448.144531 897.1875 449.519531 899.265625 451.59375 C 900.761719 453.089844 904.675781 452.429688 926.742188 446.933594 C 954.199219 440.097656 972.828125 434.125 975.339844 431.351562 C 979.390625 426.875 971.859375 425.316406 958.015625 427.773438 M 980.816406 431.558594 C 980.125 432.25 979.824219 436.769531 979.820312 446.578125 C 979.800781 483.195312 975.195312 503.394531 960.425781 531.628906 C 957.515625 537.191406 955.136719 542.238281 955.136719 542.84375 C 955.136719 543.453125 955.703125 544.417969 956.394531 544.992188 C 958.398438 546.65625 960.9375 543.578125 966.480469 532.769531 C 975.875 514.453125 982.226562 492.679688 985.238281 468.460938 C 986.410156 459.039062 986.832031 435.921875 985.894531 432.421875 C 985.34375 430.375 982.484375 429.890625 980.816406 431.558594 M 844.851562 433.863281 C 843.945312 434.769531 843.203125 436.191406 843.203125 437.027344 C 843.203125 439.019531 845.75 441.269531 848 441.269531 C 850.050781 441.269531 853.082031 438.570312 853.082031 436.746094 C 853.082031 434.972656 850.074219 432.21875 848.140625 432.21875 C 847.238281 432.21875 845.753906 432.957031 844.851562 433.863281 M 800.054688 434.332031 C 799.339844 435.046875 798.761719 435.945312 798.761719 436.332031 C 798.761719 437.390625 801.203125 439.625 802.355469 439.625 C 805.289062 439.625 806.34375 435.28125 803.753906 433.894531 C 801.691406 432.789062 801.582031 432.804688 800.054688 434.332031 M 712.339844 436.070312 C 691.140625 439.550781 684.929688 440.453125 676.949219 441.203125 C 655.78125 443.195312 636.496094 443.902344 611.105469 443.625 L 584.359375 443.328125 L 584.359375 445.351562 C 584.359375 448.050781 586.160156 448.398438 606.40625 449.582031 C 627.449219 450.808594 649.601562 449.683594 680.683594 445.796875 C 721.644531 440.679688 723.84375 440.210938 722.554688 436.847656 C 722.046875 435.519531 717.703125 435.191406 712.339844 436.070312 M 972.398438 445.535156 C 972.371094 454.050781 971.089844 466.785156 969.417969 475.226562 C 967.9375 482.683594 968.351562 484.859375 971.050781 483.824219 C 973.578125 482.855469 976.988281 458.558594 976.394531 445.796875 C 976.148438 440.546875 975.960938 440.011719 974.273438 439.773438 C 972.496094 439.519531 972.417969 439.761719 972.398438 445.535156 M 549.957031 444.019531 C 548.886719 446.800781 553.472656 448.449219 563.371094 448.84375 C 569.15625 449.074219 569.558594 448.980469 569.796875 447.3125 C 570.085938 445.28125 569.445312 445.078125 558.453125 443.757812 C 549.847656 442.71875 550.460938 442.703125 549.957031 444.019531 M 957.515625 445.179688 C 957.464844 445.519531 957.488281 451.351562 957.566406 458.144531 C 957.886719 485.460938 951.257812 518.589844 940.992188 541.023438 C 938.363281 546.769531 938.367188 549.089844 941.003906 549.089844 C 942.175781 549.089844 943.367188 547.222656 945.867188 541.476562 C 954.363281 521.941406 960.042969 497.035156 961.765625 471.722656 C 962.628906 459.070312 962.234375 448.773438 960.777344 446.003906 C 960.023438 444.578125 957.691406 443.988281 957.515625 445.179688 M 704.933594 453.617188 C 702.953125 455.597656 702.875 456.777344 704.570312 459.195312 C 706.167969 461.476562 709.332031 461.5625 711.519531 459.378906 C 713.511719 457.386719 713.554688 456.625 711.835938 454 C 710.207031 451.515625 707.199219 451.351562 704.933594 453.617188 M 938.195312 458.277344 C 939.449219 466.769531 940.265625 478.320312 940.292969 487.929688 C 940.308594 493.449219 940.660156 498.171875 941.070312 498.425781 C 941.484375 498.679688 942.460938 498.644531 943.242188 498.34375 C 944.546875 497.84375 944.625 496.414062 944.179688 480.851562 C 943.613281 461.148438 942.535156 454.996094 939.566406 454.574219 C 937.671875 454.300781 937.628906 454.417969 938.195312 458.277344 M 660.191406 457.113281 C 657.320312 459.722656 656.953125 461.832031 658.828125 464.914062 C 662.792969 471.441406 671.890625 468.03125 670.050781 460.707031 C 668.75 455.523438 663.886719 453.753906 660.191406 457.113281 M 863.78125 457.714844 C 858.121094 458.992188 850.0625 461.007812 845.871094 462.191406 C 836.492188 464.84375 805.929688 472.433594 792.585938 475.429688 C 774.101562 479.578125 772.011719 480.050781 768.007812 481.003906 C 763.964844 481.96875 762.449219 483.480469 763.988281 485.015625 C 765.617188 486.644531 809.328125 476.859375 853 465.089844 C 858.164062 463.699219 866.0625 461.886719 870.558594 461.066406 C 879.101562 459.503906 880.785156 458.695312 879.964844 456.550781 C 879.269531 454.738281 875.855469 454.984375 863.78125 457.714844 M 662.136719 461.757812 C 662.136719 463.488281 664.476562 464.773438 665.59375 463.65625 C 666.707031 462.542969 665.421875 460.199219 663.695312 460.199219 C 662.714844 460.199219 662.136719 460.777344 662.136719 461.757812 M 603.886719 464.503906 C 601.332031 465.738281 600.648438 468.890625 602.496094 470.933594 C 605.542969 474.300781 611.929688 471.789062 611.929688 467.226562 C 611.929688 463.925781 607.910156 462.566406 603.886719 464.503906 M 630.335938 475.421875 C 630.050781 476.164062 630.214844 477.167969 630.695312 477.648438 C 631.949219 478.902344 634.324219 477.757812 633.996094 476.058594 C 633.632812 474.164062 630.996094 473.703125 630.335938 475.421875 M 669.855469 476.210938 C 669.28125 477.703125 670.113281 479.132812 671.5625 479.132812 C 673.0625 479.132812 673.738281 477.070312 672.605469 475.9375 C 671.351562 474.6875 670.40625 474.777344 669.855469 476.210938 M 740.378906 488.902344 C 738.96875 491.539062 739.246094 492.488281 744.402344 502.789062 C 753.695312 521.355469 763.15625 534.253906 778.96875 549.914062 C 796.839844 567.609375 818.800781 582.789062 844.027344 594.882812 C 852.898438 599.136719 859.949219 601.628906 865.8125 602.582031 C 871.316406 603.476562 872.832031 603.039062 872.832031 600.546875 C 872.832031 599.015625 872.136719 598.503906 868.921875 597.671875 C 850.199219 592.820312 838.976562 587.917969 820.972656 576.722656 C 806.589844 567.78125 795.402344 558.734375 783.3125 546.277344 C 767.9375 530.4375 755.347656 512.691406 747.945312 496.433594 C 746.394531 493.027344 744.839844 489.6875 744.488281 489.007812 C 743.515625 487.125 741.363281 487.066406 740.378906 488.902344 M 651.496094 491.175781 C 649.453125 493.773438 649.441406 493.90625 651.070312 496.230469 C 653.878906 500.238281 661.113281 497.195312 659.964844 492.492188 C 659.300781 489.785156 658.320312 489.035156 655.40625 489.019531 C 653.996094 489.011719 652.585938 489.789062 651.496094 491.175781 M 751.925781 490.605469 C 750.636719 491.398438 751.25 493.820312 752.855469 494.285156 C 753.433594 494.449219 757.792969 495.398438 762.546875 496.390625 C 767.300781 497.382812 774.015625 499.046875 777.46875 500.089844 C 783.964844 502.046875 785.960938 501.832031 785.460938 499.230469 C 785.054688 497.121094 781.765625 496.160156 754.71875 490.257812 C 753.8125 490.0625 752.554688 490.214844 751.925781 490.605469 M 602.066406 499.464844 C 598.976562 503.398438 601.441406 508.265625 606.527344 508.265625 C 610.289062 508.265625 612.753906 505.984375 612.753906 502.507812 C 612.753906 497.25 605.445312 495.171875 602.066406 499.464844 M 528.804688 500.285156 C 526.488281 501.128906 523.082031 504.910156 522.183594 507.636719 C 519.832031 514.757812 528.175781 519.464844 535.101562 514.925781 C 537.800781 513.160156 540.320312 508.875 540.324219 506.046875 C 540.328125 502.601562 537.007812 499.691406 533.160156 499.773438 C 531.445312 499.808594 529.484375 500.039062 528.804688 500.285156 M 804.246094 500.253906 C 801.789062 502.714844 808.375 507.027344 822.722656 512.351562 C 847.050781 521.378906 888.179688 528.5 917.679688 528.789062 L 931.679688 528.925781 L 931.679688 526.902344 C 931.679688 524.207031 929.863281 523.902344 909.871094 523.210938 C 888.804688 522.484375 875.277344 520.632812 854.726562 515.660156 C 839.25 511.914062 814.195312 503.929688 809.617188 501.28125 C 806.773438 499.636719 805.171875 499.328125 804.246094 500.253906 M 641.355469 511.015625 C 639.046875 511.550781 639.527344 514.523438 641.921875 514.523438 C 643.027344 514.523438 644.183594 514.117188 644.488281 513.621094 C 645.253906 512.382812 643.117188 510.605469 641.355469 511.015625 M 831.296875 526 C 830.503906 527.285156 831.546875 528.511719 833.4375 528.511719 C 834.566406 528.511719 835.007812 528.058594 834.820312 527.082031 C 834.503906 525.441406 832.097656 524.703125 831.296875 526 M 858.367188 528.792969 C 858.09375 529.5 858.109375 530.464844 858.398438 530.933594 C 859.347656 532.464844 869.828125 535.121094 875.714844 535.316406 C 880.992188 535.492188 881.476562 535.371094 881.476562 533.863281 C 881.476562 532.496094 880.707031 532.105469 876.949219 531.558594 C 872.675781 530.933594 864.785156 529.222656 860.703125 528.039062 C 859.429688 527.667969 858.707031 527.902344 858.367188 528.792969 M 845.371094 534.335938 C 842.785156 536.371094 842.605469 538.613281 844.851562 540.859375 C 846.691406 542.703125 851.351562 543.082031 852.914062 541.515625 C 853.457031 540.972656 853.902344 539.179688 853.902344 537.535156 C 853.902344 535.121094 853.496094 534.351562 851.808594 533.582031 C 848.890625 532.253906 847.863281 532.375 845.371094 534.335938 M 590.980469 536.125 C 590.804688 536.691406 590.425781 539.5625 590.144531 542.503906 C 589.671875 547.390625 586.789062 564.335938 583.425781 582.011719 C 582.695312 585.859375 581.378906 591.230469 580.503906 593.945312 C 579.628906 596.660156 576.164062 608.347656 572.804688 619.917969 C 567.550781 638.015625 564.796875 646.46875 558.828125 662.816406 C 558.222656 664.480469 555.09375 671.316406 551.878906 678.007812 C 548.664062 684.695312 546.140625 690.738281 546.277344 691.4375 C 546.414062 692.160156 547.371094 692.710938 548.488281 692.710938 C 554.953125 692.710938 575.398438 640.773438 583.960938 602.585938 C 585.738281 594.664062 587.949219 585.589844 588.875 582.421875 C 595.332031 560.324219 598.101562 541.578125 595.59375 536.949219 C 594.515625 534.964844 591.511719 534.429688 590.980469 536.125 M 913.535156 542.878906 C 912.425781 543.992188 911.515625 545.488281 911.515625 546.207031 C 911.515625 548.167969 915.289062 551.558594 917.46875 551.558594 C 920.425781 551.558594 923.039062 549.308594 923.039062 546.757812 C 923.039062 541.160156 917.511719 538.90625 913.535156 542.878906 M 612.996094 545.667969 C 610.6875 547.144531 595.988281 585.078125 585.675781 616.167969 C 575.105469 648.027344 570.730469 669.023438 570.824219 687.464844 C 570.886719 699.78125 571.535156 703.410156 573.671875 703.410156 C 575.234375 703.410156 575.308594 702.804688 575.359375 689.828125 C 575.417969 674.609375 576.65625 665.566406 581.152344 647.441406 C 585.652344 629.316406 601.828125 582.074219 612.257812 556.613281 C 614.339844 551.527344 616.046875 547.050781 616.046875 546.667969 C 616.046875 545.6875 614.003906 545.019531 612.996094 545.667969 M 708.542969 547.96875 C 706.207031 550.03125 704.628906 554.347656 705.273438 556.917969 C 705.871094 559.289062 710.152344 562.25 712.992188 562.253906 C 715.640625 562.257812 721.164062 559.285156 722.238281 557.277344 C 723.671875 554.605469 722.875 550.671875 720.558594 548.949219 C 719.421875 548.101562 716.644531 547.191406 714.382812 546.925781 C 711.085938 546.535156 709.9375 546.738281 708.542969 547.96875 M 876.332031 553.804688 C 875.765625 554.003906 875.300781 554.835938 875.300781 555.652344 C 875.300781 557.253906 876.722656 558.121094 878.386719 557.539062 C 878.953125 557.34375 879.417969 556.511719 879.417969 555.691406 C 879.417969 554.09375 877.996094 553.222656 876.332031 553.804688 M 902.796875 560.921875 C 902.132812 562.660156 903.066406 563.902344 905.039062 563.902344 C 906.28125 563.902344 906.628906 563.445312 906.429688 562.058594 C 906.121094 559.910156 903.503906 559.089844 902.796875 560.921875 M 928.019531 578.417969 C 919.59375 586.980469 912.0625 595.335938 911.277344 596.992188 C 905.371094 609.4375 908.574219 645.488281 919.34375 687.769531 C 928.542969 723.875 935.941406 745.09375 943.09375 755.867188 C 949.089844 764.894531 957.941406 771.117188 967.484375 773.003906 C 969.972656 773.496094 977.378906 773.910156 983.941406 773.917969 C 996.875 773.9375 1007.714844 775.398438 1013.320312 777.878906 C 1016.351562 779.21875 1016.863281 779.800781 1016.863281 781.894531 C 1016.863281 785.125 1012.820312 788.324219 1002.722656 793.082031 C 987.6875 800.164062 967.601562 807.113281 941.578125 814.242188 C 930.628906 817.242188 929.621094 817.746094 929.621094 820.21875 C 929.621094 824.199219 933.023438 823.753906 951.726562 817.328125 C 958.355469 815.046875 972.296875 810.382812 982.707031 806.960938 C 1008.613281 798.441406 1017.285156 793.9375 1020.222656 787.46875 C 1025.546875 775.738281 1016.308594 768.902344 995.203125 768.960938 C 986.363281 768.988281 980.378906 768.285156 971.597656 766.191406 C 951.1875 761.320312 943.507812 751.085938 936.992188 720.074219 C 934.382812 707.640625 932.589844 701.046875 925.195312 676.660156 C 917.308594 650.652344 914.675781 638.398438 914.222656 625.632812 C 913.476562 604.46875 918.132812 594.316406 937.613281 574.632812 C 942.300781 569.898438 946.03125 565.484375 945.902344 564.824219 C 945.269531 561.5625 942.609375 563.585938 928.019531 578.417969 M 853.082031 564.964844 C 850.507812 566.257812 849.90625 569.988281 851.910156 572.207031 C 853.816406 574.308594 858.351562 574.273438 860.488281 572.132812 C 863.054688 569.566406 862.429688 566.996094 858.78125 565.109375 C 855.972656 563.65625 855.695312 563.648438 853.082031 564.964844 M 911.878906 570.824219 C 902.195312 575.878906 890.550781 578.753906 878.832031 578.988281 C 872.277344 579.117188 871.597656 579.277344 871.597656 580.722656 C 871.597656 583.273438 876.089844 583.964844 885.683594 582.894531 C 896.296875 581.707031 906.179688 578.984375 913.996094 575.089844 C 921.089844 571.554688 923.480469 569.535156 922.765625 567.675781 C 922.035156 565.765625 921 566.066406 911.878906 570.824219 M 909.046875 584.578125 C 903.707031 587.808594 892.242188 591.878906 888.429688 591.898438 C 884.433594 591.921875 882.609375 592.832031 882.871094 594.667969 C 883.09375 596.21875 883.578125 596.386719 887.234375 596.167969 C 893.238281 595.808594 900.332031 593.753906 907.8125 590.203125 C 915.199219 586.699219 918.273438 584.242188 917.574219 582.417969 C 916.855469 580.542969 914.902344 581.039062 909.046875 584.578125 M 784.492188 584.207031 C 784.191406 584.507812 783.945312 586.117188 783.945312 587.78125 C 783.945312 591.160156 786.175781 593.859375 788.585938 593.394531 C 790.476562 593.03125 792.203125 587.644531 790.597656 587.109375 C 790.003906 586.910156 788.921875 586.054688 788.195312 585.203125 C 786.832031 583.613281 785.457031 583.242188 784.492188 584.207031 M 885.726562 613.644531 C 885.476562 614.292969 886.304688 616.121094 887.5625 617.707031 C 893.300781 624.925781 903.933594 658.90625 909.871094 689.003906 C 915.804688 719.058594 919.71875 750.132812 919.738281 767.332031 C 919.746094 775.824219 920.125 777.070312 922.699219 777.070312 C 925.453125 777.070312 925.941406 774.589844 925.789062 761.433594 C 925.582031 743.691406 922.480469 718.398438 918.121094 698.882812 C 914.488281 682.621094 904.855469 647.519531 900.332031 634.058594 C 896.480469 622.589844 894.042969 617.289062 891.425781 614.667969 C 889.011719 612.253906 886.433594 611.792969 885.726562 613.644531 M 530.449219 694.035156 C 514.441406 695.089844 495.183594 697.195312 489.296875 698.535156 C 482.460938 700.09375 477.878906 702.6875 475.859375 706.144531 C 474.441406 708.566406 474.375 709.277344 475.277344 712.316406 C 477.8125 720.890625 491.777344 729.449219 513.988281 736.046875 C 526.75 739.832031 585.1875 754.253906 593.699219 755.714844 C 611.84375 758.828125 621.503906 756.902344 623.050781 749.863281 C 624.242188 744.441406 617.761719 736.785156 602.46875 725.542969 C 597.609375 721.96875 591.175781 717.09375 588.171875 714.707031 C 582.246094 710 578.820312 709.25 578.347656 712.554688 C 578.050781 714.640625 582.839844 719.15625 593.527344 726.859375 C 605.628906 735.589844 612.304688 741.328125 613.992188 744.457031 C 615.515625 747.289062 615.523438 747.492188 614.144531 748.875 C 612.058594 750.960938 600.148438 751.285156 589.703125 749.539062 C 574.464844 746.988281 527.300781 734.578125 512.34375 729.175781 C 496.789062 723.5625 483.066406 715.527344 480.894531 710.765625 C 480.148438 709.132812 480.257812 708.460938 481.484375 707.105469 C 484.878906 703.351562 495.625 701.605469 520.984375 700.683594 C 539.949219 699.992188 543.695312 699.253906 544.304688 696.09375 C 544.601562 694.5625 543.136719 693.050781 541.5625 693.25 C 541.109375 693.308594 536.109375 693.664062 530.449219 694.035156 M 945.789062 772.167969 C 942.683594 773.507812 938.167969 774.839844 935.753906 775.125 C 931.347656 775.640625 930.023438 776.699219 931.265625 778.710938 C 932.324219 780.421875 940.054688 779.21875 947.25 776.222656 C 952.511719 774.03125 953.539062 773.300781 953.328125 771.894531 C 952.964844 769.425781 952.046875 769.460938 945.789062 772.167969 M 946.90625 777.480469 C 945.773438 778.128906 944.246094 778.671875 943.507812 778.6875 C 942.773438 778.703125 941.695312 779.289062 941.109375 779.992188 C 940.242188 781.039062 940.261719 781.472656 941.214844 782.410156 C 942.210938 783.386719 943.035156 783.320312 946.851562 781.964844 C 951.535156 780.304688 952.796875 779.191406 952.089844 777.351562 C 951.550781 775.9375 949.519531 775.988281 946.90625 777.480469 M 911.6875 783.113281 C 906.46875 787.925781 896.738281 795.1875 884.574219 803.351562 C 870.394531 812.867188 867.269531 817.28125 870.84375 822.734375 C 873.320312 826.519531 878.105469 827.546875 891.175781 827.105469 C 902.875 826.707031 906.578125 825.863281 906.578125 823.589844 C 906.578125 821.449219 904.566406 821.132812 892.175781 821.335938 C 879.578125 821.542969 875.269531 821.003906 874.648438 819.140625 C 874.078125 817.429688 880.933594 811.699219 896.019531 801.277344 C 911.230469 790.769531 918.921875 784.046875 918.921875 781.257812 C 918.921875 778.433594 915.929688 779.199219 911.6875 783.113281 M 990.527344 789.757812 C 982.800781 793.699219 966.691406 799.308594 953.695312 802.589844 C 950.972656 803.277344 950.199219 803.855469 950.199219 805.199219 C 950.199219 806.8125 950.503906 806.890625 954.777344 806.386719 C 963.984375 805.304688 996.992188 793.09375 998.855469 790.078125 C 999.707031 788.707031 998.777344 786.941406 997.230469 786.988281 C 996.484375 787.007812 993.46875 788.253906 990.527344 789.757812 M 917.6875 793.1875 C 908.515625 800.675781 900.730469 808.519531 901.011719 809.988281 C 901.449219 812.253906 903.921875 811.269531 908.359375 807.070312 C 910.773438 804.78125 916.375 800.007812 920.804688 796.460938 C 925.234375 792.914062 928.726562 789.597656 928.5625 789.097656 C 928.394531 788.59375 927.363281 788.097656 926.265625 787.996094 C 924.871094 787.867188 922.296875 789.425781 917.6875 793.1875 M 960.046875 790.058594 C 951.828125 795.21875 944.902344 797.511719 935.074219 798.328125 C 929.121094 798.820312 928.386719 799.0625 928.386719 800.527344 C 928.386719 802.058594 928.910156 802.167969 935.796875 802.089844 C 944.4375 801.988281 953.3125 799.375 961.140625 794.617188 C 964.816406 792.386719 965.871094 791.316406 965.675781 790.011719 C 965.304688 787.488281 964.121094 787.5 960.046875 790.058594 M 908.222656 813.429688 C 899.574219 815.277344 898.347656 815.777344 898.347656 817.429688 C 898.347656 819.355469 901.066406 819.496094 908.40625 817.945312 C 914.003906 816.761719 915.558594 815.59375 914.015625 813.730469 C 913.433594 813.03125 912.726562 812.5 912.445312 812.550781 C 912.160156 812.597656 910.261719 812.992188 908.222656 813.429688 " fill-opacity="1" fill-rule="evenodd"/></g><g transform="matrix(1, 0, 0, 1, 210, 784)"><g clip-path="url(#3d8824a241)"><g fill="#ba9672" fill-opacity="1"><g transform="translate(0.923819, 316.522204)"><g><path d="M 97.21875 -70.4375 C 92.75 -70.4375 89.164062 -70.671875 86.46875 -71.140625 C 83.769531 -71.617188 81.71875 -72.09375 80.3125 -72.5625 C 76.3125 -73.96875 74.3125 -75.140625 74.3125 -76.078125 C 74.3125 -78.191406 86.289062 -79.25 110.25 -79.25 C 123.15625 -79.25 135.476562 -81.359375 147.21875 -85.578125 C 158.96875 -89.804688 169.710938 -95.265625 179.453125 -101.953125 C 189.203125 -108.648438 197.476562 -115.816406 204.28125 -123.453125 C 211.09375 -131.085938 215.910156 -138.304688 218.734375 -145.109375 C 220.367188 -149.335938 221.1875 -152.863281 221.1875 -155.6875 C 221.1875 -163.664062 217.722656 -170.765625 210.796875 -176.984375 C 203.867188 -183.210938 194.535156 -188.203125 182.796875 -191.953125 C 171.054688 -195.710938 157.675781 -197.59375 142.65625 -197.59375 C 129.738281 -197.59375 115.941406 -195.890625 101.265625 -192.484375 C 86.585938 -189.078125 71.96875 -183.5 57.40625 -175.75 C 55.769531 -174.8125 53.660156 -174.164062 51.078125 -173.8125 C 48.492188 -173.46875 45.789062 -173.296875 42.96875 -173.296875 C 39.445312 -173.296875 36.21875 -173.644531 33.28125 -174.34375 C 30.34375 -175.050781 28.875 -176.109375 28.875 -177.515625 C 28.875 -179.398438 31.109375 -181.515625 35.578125 -183.859375 C 51.304688 -192.304688 67.738281 -198.410156 84.875 -202.171875 C 102.019531 -205.929688 118.8125 -207.8125 135.25 -207.8125 C 151.21875 -207.8125 166.363281 -206.285156 180.6875 -203.234375 C 195.007812 -200.179688 207.6875 -196.007812 218.71875 -190.71875 C 229.757812 -185.4375 238.390625 -179.332031 244.609375 -172.40625 C 250.835938 -165.476562 253.953125 -158.140625 253.953125 -150.390625 C 253.953125 -146.171875 252.894531 -141.945312 250.78125 -137.71875 C 246.550781 -128.789062 238.800781 -120.160156 227.53125 -111.828125 C 216.257812 -103.492188 202.753906 -96.15625 187.015625 -89.8125 C 171.285156 -83.476562 154.617188 -78.546875 137.015625 -75.015625 C 128.085938 -73.378906 120.394531 -72.207031 113.9375 -71.5 C 107.476562 -70.789062 101.90625 -70.4375 97.21875 -70.4375 Z M 26.765625 21.84375 C 24.890625 21.84375 22.660156 20.253906 20.078125 17.078125 C 17.492188 13.910156 15.265625 7.75 13.390625 -1.40625 C 13.148438 -2.8125 12.972656 -4.273438 12.859375 -5.796875 C 12.742188 -7.328125 12.6875 -8.914062 12.6875 -10.5625 C 12.6875 -18.550781 13.800781 -28.003906 16.03125 -38.921875 C 18.257812 -49.835938 21.25 -61.34375 25 -73.4375 C 28.757812 -85.53125 32.867188 -97.445312 37.328125 -109.1875 C 41.796875 -120.925781 46.375 -131.726562 51.0625 -141.59375 C 55.757812 -151.457031 60.109375 -159.441406 64.109375 -165.546875 C 67.390625 -170.941406 72.140625 -174.632812 78.359375 -176.625 C 84.585938 -178.625 90.519531 -179.625 96.15625 -179.625 C 101.550781 -179.625 106.007812 -178.921875 109.53125 -177.515625 C 113.0625 -176.109375 114.003906 -174.46875 112.359375 -172.59375 C 104.609375 -162.957031 96.625 -151.503906 88.40625 -138.234375 C 80.1875 -124.972656 72.4375 -110.882812 65.15625 -95.96875 C 57.875 -81.0625 51.414062 -66.328125 45.78125 -51.765625 C 40.144531 -37.210938 35.914062 -23.832031 33.09375 -11.625 C 30.28125 0.582031 29.347656 10.679688 30.296875 18.671875 C 30.296875 20.785156 29.117188 21.84375 26.765625 21.84375 Z M 26.765625 21.84375 "/></g></g></g><g fill="#ba9672" fill-opacity="1"><g transform="translate(278.119271, 316.522204)"><g><path d="M 144.0625 13.390625 C 133.488281 13.390625 122.097656 12.097656 109.890625 9.515625 C 86.640625 4.578125 67.5 -2.816406 52.46875 -12.671875 C 37.445312 -22.535156 26.296875 -33.804688 19.015625 -46.484375 C 11.734375 -59.171875 8.09375 -72.207031 8.09375 -85.59375 C 8.09375 -100.851562 12.554688 -115.757812 21.484375 -130.3125 C 30.410156 -144.875 43.5625 -157.613281 60.9375 -168.53125 C 78.3125 -179.457031 99.441406 -187.03125 124.328125 -191.25 C 137.015625 -193.363281 150.519531 -194.421875 164.84375 -194.421875 C 175.644531 -194.421875 185.972656 -193.773438 195.828125 -192.484375 C 205.691406 -191.191406 214.203125 -189.367188 221.359375 -187.015625 C 228.523438 -184.671875 233.398438 -181.625 235.984375 -177.875 C 237.160156 -176.457031 237.75 -174.457031 237.75 -171.875 C 237.75 -168.59375 236.925781 -165.773438 235.28125 -163.421875 C 244.207031 -160.140625 252.539062 -155.382812 260.28125 -149.15625 C 268.03125 -142.9375 274.195312 -135.597656 278.78125 -127.140625 C 283.363281 -118.691406 285.65625 -109.300781 285.65625 -98.96875 C 285.65625 -89.113281 283.304688 -79.132812 278.609375 -69.03125 C 271.328125 -53.769531 261.050781 -39.914062 247.78125 -27.46875 C 234.519531 -15.03125 219.082031 -5.113281 201.46875 2.28125 C 183.851562 9.6875 164.71875 13.390625 144.0625 13.390625 Z M 134.90625 1.765625 C 152.75 1.765625 169.414062 -1.695312 184.90625 -8.625 C 200.40625 -15.550781 214.023438 -24.828125 225.765625 -36.453125 C 237.515625 -48.078125 246.554688 -60.816406 252.890625 -74.671875 C 255.472656 -80.066406 257.289062 -85.226562 258.34375 -90.15625 C 259.40625 -95.09375 259.9375 -99.789062 259.9375 -104.25 C 259.9375 -116.695312 256.351562 -127.144531 249.1875 -135.59375 C 242.03125 -144.050781 233.226562 -150.453125 222.78125 -154.796875 C 212.332031 -159.140625 201.941406 -161.3125 191.609375 -161.3125 C 181.742188 -161.3125 173.40625 -159.4375 166.59375 -155.6875 C 164.25 -154.507812 162.253906 -153.921875 160.609375 -153.921875 C 157.796875 -153.921875 156.390625 -154.859375 156.390625 -156.734375 C 156.390625 -157.441406 158.328125 -158.144531 162.203125 -158.84375 C 166.078125 -159.550781 170.945312 -160.316406 176.8125 -161.140625 C 182.6875 -161.960938 188.734375 -162.722656 194.953125 -163.421875 C 201.171875 -164.128906 206.570312 -164.773438 211.15625 -165.359375 C 215.738281 -165.953125 218.734375 -166.484375 220.140625 -166.953125 C 217.085938 -167.179688 214.148438 -167.414062 211.328125 -167.65625 C 208.515625 -167.894531 208.046875 -168.015625 209.921875 -168.015625 L 210.28125 -168.015625 C 217.320312 -168.015625 220.84375 -167.773438 220.84375 -167.296875 C 220.84375 -167.296875 220.609375 -167.179688 220.140625 -166.953125 C 222.484375 -166.710938 224.242188 -166.476562 225.421875 -166.25 L 225.421875 -168.359375 C 225.421875 -173.992188 221.25 -178.21875 212.90625 -181.03125 C 204.570312 -183.851562 194.535156 -185.265625 182.796875 -185.265625 C 175.515625 -185.265625 167.707031 -184.734375 159.375 -183.671875 C 151.039062 -182.617188 142.765625 -180.921875 134.546875 -178.578125 C 112.472656 -172.472656 94.625 -164.3125 81 -154.09375 C 67.382812 -143.882812 57.523438 -132.613281 51.421875 -120.28125 C 45.316406 -107.957031 42.265625 -95.570312 42.265625 -83.125 C 42.265625 -70.675781 44.960938 -58.757812 50.359375 -47.375 C 55.765625 -35.988281 63.335938 -26.242188 73.078125 -18.140625 C 82.828125 -10.035156 94.039062 -4.457031 106.71875 -1.40625 C 116.34375 0.707031 125.738281 1.765625 134.90625 1.765625 Z M 134.90625 1.765625 "/></g></g></g><g fill="#ba9672" fill-opacity="1"><g transform="translate(604.27297, 316.522204)"><g><path d="M 153.921875 25.71875 C 151.804688 25.71875 149.335938 25.242188 146.515625 24.296875 C 141.359375 22.660156 137.25 21.019531 134.1875 19.375 C 131.132812 17.726562 128.90625 14.847656 127.5 10.734375 C 126.09375 6.628906 125.035156 0 124.328125 -9.15625 C 124.097656 -11.976562 124.507812 -17.203125 125.5625 -24.828125 C 126.625 -32.460938 128.207031 -41.328125 130.3125 -51.421875 C 132.425781 -61.515625 134.953125 -71.726562 137.890625 -82.0625 C 140.828125 -92.394531 144.054688 -101.671875 147.578125 -109.890625 C 144.054688 -106.835938 139.710938 -101.789062 134.546875 -94.75 C 129.378906 -87.707031 123.566406 -79.601562 117.109375 -70.4375 C 110.648438 -61.28125 103.601562 -51.828125 95.96875 -42.078125 C 88.34375 -32.335938 80.1875 -23.242188 71.5 -14.796875 C 68.207031 -11.503906 64.035156 -8.445312 58.984375 -5.625 C 53.941406 -2.8125 48.835938 -0.757812 43.671875 0.53125 C 38.503906 1.820312 33.925781 2.234375 29.9375 1.765625 C 29 1.765625 27.0625 1.117188 24.125 -0.171875 C 21.1875 -1.460938 18.425781 -3.867188 15.84375 -7.390625 C 13.257812 -10.921875 11.96875 -16.207031 11.96875 -23.25 C 11.96875 -27.945312 12.789062 -35.632812 14.4375 -46.3125 C 16.082031 -57 18.546875 -69.382812 21.828125 -83.46875 C 25.117188 -97.5625 29.285156 -112.0625 34.328125 -126.96875 C 39.378906 -141.882812 45.3125 -155.914062 52.125 -169.0625 C 58.9375 -182.21875 66.566406 -193.140625 75.015625 -201.828125 C 77.597656 -204.410156 82.117188 -206.753906 88.578125 -208.859375 C 95.035156 -210.972656 100.613281 -212.03125 105.3125 -212.03125 C 110.476562 -212.03125 113.0625 -210.738281 113.0625 -208.15625 C 113.0625 -207.457031 112.472656 -206.164062 111.296875 -204.28125 C 100.265625 -188.082031 90.460938 -171.765625 81.890625 -155.328125 C 73.316406 -138.890625 66.09375 -123.039062 60.21875 -107.78125 C 54.351562 -92.519531 49.894531 -78.488281 46.84375 -65.6875 C 43.789062 -52.894531 42.265625 -42.269531 42.265625 -33.8125 C 42.265625 -27.238281 43.257812 -22.191406 45.25 -18.671875 C 47.25 -15.148438 50.242188 -13.738281 54.234375 -14.4375 C 58.234375 -15.144531 63.578125 -19.019531 70.265625 -26.0625 C 76.960938 -33.101562 84.535156 -42.023438 92.984375 -52.828125 C 101.441406 -63.628906 110.1875 -75.3125 119.21875 -87.875 C 128.257812 -100.4375 137.003906 -112.585938 145.453125 -124.328125 C 153.910156 -136.066406 161.546875 -146.335938 168.359375 -155.140625 C 175.171875 -163.953125 180.453125 -170.003906 184.203125 -173.296875 C 186.085938 -174.929688 187.675781 -176.039062 188.96875 -176.625 C 190.257812 -177.21875 191.375 -177.515625 192.3125 -177.515625 C 194.894531 -177.515625 196.1875 -175.753906 196.1875 -172.234375 C 196.1875 -170.359375 195.832031 -168.710938 195.125 -167.296875 C 193.007812 -163.304688 190.191406 -157.203125 186.671875 -148.984375 C 183.148438 -140.765625 179.453125 -131.195312 175.578125 -120.28125 C 171.703125 -109.363281 168.0625 -97.859375 164.65625 -85.765625 C 161.257812 -73.671875 158.441406 -61.578125 156.203125 -49.484375 C 153.972656 -37.390625 152.859375 -26.0625 152.859375 -15.5 C 152.859375 -4.925781 154.269531 4.226562 157.09375 11.96875 C 158.5 15.5 159.203125 18.4375 159.203125 20.78125 C 159.203125 24.070312 157.441406 25.71875 153.921875 25.71875 Z M 153.921875 25.71875 "/></g></g></g><g fill="#ba9672" fill-opacity="1"><g transform="translate(831.453569, 316.522204)"><g><path d="M 220.140625 14.09375 C 217.085938 14.09375 212.035156 12.972656 204.984375 10.734375 C 197.941406 8.503906 190.425781 5.570312 182.4375 1.9375 C 174.457031 -1.695312 167.414062 -5.515625 161.3125 -9.515625 C 156.382812 -12.796875 150.515625 -16.960938 143.703125 -22.015625 C 136.890625 -27.066406 130.140625 -32.234375 123.453125 -37.515625 C 116.765625 -42.796875 110.953125 -47.488281 106.015625 -51.59375 C 101.085938 -55.707031 98.035156 -58.351562 96.859375 -59.53125 C 95.210938 -61.164062 94.390625 -63.273438 94.390625 -65.859375 C 94.390625 -67.742188 94.800781 -69.679688 95.625 -71.671875 C 96.445312 -73.671875 97.328125 -75.609375 98.265625 -77.484375 C 97.566406 -77.484375 96.863281 -77.660156 96.15625 -78.015625 C 95.445312 -78.367188 95.09375 -78.546875 95.09375 -78.546875 C 90.875 -79.953125 88.765625 -81.242188 88.765625 -82.421875 C 88.765625 -85.003906 95.335938 -86.296875 108.484375 -86.296875 L 115.53125 -86.296875 C 116.695312 -86.296875 117.984375 -86.351562 119.390625 -86.46875 C 120.804688 -86.582031 122.21875 -86.640625 123.625 -86.640625 C 141 -86.640625 156.4375 -89.335938 169.9375 -94.734375 C 183.445312 -100.140625 194.425781 -106.71875 202.875 -114.46875 C 211.332031 -122.21875 216.617188 -129.5 218.734375 -136.3125 C 219.429688 -138.894531 219.78125 -141.125 219.78125 -143 C 219.78125 -151.21875 215.492188 -157.910156 206.921875 -163.078125 C 198.359375 -168.242188 187.265625 -172.117188 173.640625 -174.703125 C 160.023438 -177.285156 145.703125 -178.578125 130.671875 -178.578125 C 117.285156 -178.578125 104.132812 -177.632812 91.21875 -175.75 C 78.3125 -173.875 67.039062 -170.941406 57.40625 -166.953125 C 54.351562 -165.773438 51.535156 -165.1875 48.953125 -165.1875 C 45.203125 -165.1875 43.328125 -166.007812 43.328125 -167.65625 C 43.328125 -169.769531 46.726562 -172.585938 53.53125 -176.109375 C 67.15625 -182.921875 81.1875 -187.789062 95.625 -190.71875 C 110.0625 -193.65625 124.328125 -195.125 138.421875 -195.125 C 153.921875 -195.125 168.597656 -193.597656 182.453125 -190.546875 C 196.304688 -187.492188 208.632812 -183.328125 219.4375 -178.046875 C 230.238281 -172.765625 238.691406 -166.894531 244.796875 -160.4375 C 250.898438 -153.976562 253.953125 -147.34375 253.953125 -140.53125 C 253.953125 -136.78125 252.894531 -132.90625 250.78125 -128.90625 C 248.425781 -124.6875 243.90625 -120.226562 237.21875 -115.53125 C 230.53125 -110.832031 222.601562 -106.191406 213.4375 -101.609375 C 204.28125 -97.035156 194.359375 -92.925781 183.671875 -89.28125 C 172.992188 -85.644531 162.375 -82.890625 151.8125 -81.015625 C 147.582031 -80.304688 143.175781 -79.597656 138.59375 -78.890625 C 134.019531 -78.191406 129.5 -77.84375 125.03125 -77.84375 C 127.144531 -75.019531 130.898438 -70.203125 136.296875 -63.390625 C 141.703125 -56.585938 148.515625 -48.957031 156.734375 -40.5 C 164.953125 -32.050781 174.226562 -23.597656 184.5625 -15.140625 C 187.382812 -13.023438 191.203125 -10.320312 196.015625 -7.03125 C 200.828125 -3.75 205.578125 -0.46875 210.265625 2.8125 C 214.960938 6.101562 218.425781 8.804688 220.65625 10.921875 C 222.894531 13.035156 222.722656 14.09375 220.140625 14.09375 Z M 26.765625 30.640625 C 24.890625 30.640625 22.660156 29.054688 20.078125 25.890625 C 17.492188 22.722656 15.265625 16.554688 13.390625 7.390625 C 13.148438 5.984375 12.972656 4.515625 12.859375 2.984375 C 12.742188 1.460938 12.6875 -0.117188 12.6875 -1.765625 C 12.6875 -9.742188 13.800781 -19.191406 16.03125 -30.109375 C 18.257812 -41.035156 21.25 -52.539062 25 -64.625 C 28.757812 -76.71875 32.867188 -88.632812 37.328125 -100.375 C 41.796875 -112.125 46.375 -122.925781 51.0625 -132.78125 C 55.757812 -142.644531 60.109375 -150.628906 64.109375 -156.734375 C 67.390625 -162.140625 72.140625 -165.835938 78.359375 -167.828125 C 84.585938 -169.828125 90.519531 -170.828125 96.15625 -170.828125 C 101.550781 -170.828125 106.007812 -170.117188 109.53125 -168.703125 C 113.0625 -167.296875 114.003906 -165.65625 112.359375 -163.78125 C 104.609375 -154.15625 96.625 -142.707031 88.40625 -129.4375 C 80.1875 -116.175781 72.4375 -102.085938 65.15625 -87.171875 C 57.875 -72.265625 51.414062 -57.53125 45.78125 -42.96875 C 40.144531 -28.414062 35.914062 -15.03125 33.09375 -2.8125 C 30.28125 9.394531 29.347656 19.488281 30.296875 27.46875 C 30.296875 29.582031 29.117188 30.640625 26.765625 30.640625 Z M 26.765625 30.640625 "/></g></g></g></g></g><g transform="matrix(1, 0, 0, 1, 370, 1184)"><g clip-path="url(#080d71cd20)"><g fill="#ba9672" fill-opacity="1"><g transform="translate(1.659199, 70.25702)"><g><path d="M 18.1875 0 L 18.1875 -41.859375 L 2.484375 -41.859375 L 2.484375 -45.640625 L 37.890625 -45.640625 L 37.890625 -41.859375 L 22.109375 -41.859375 L 22.109375 0 Z M 18.1875 0 "/></g></g></g><g fill="#ba9672" fill-opacity="1"><g transform="translate(66.01217, 70.25702)"><g><path d="M 38.078125 0 L 38.078125 -21.390625 L 11.34375 -21.390625 L 11.34375 0 L 7.375 0 L 7.375 -45.640625 L 11.34375 -45.640625 L 11.34375 -25.171875 L 38.078125 -25.171875 L 38.078125 -45.640625 L 42.0625 -45.640625 L 42.0625 0 Z M 38.078125 0 "/></g></g></g><g fill="#ba9672" fill-opacity="1"><g transform="translate(139.426982, 70.25702)"><g><path d="M 7.375 0 L 7.375 -45.640625 L 34.234375 -45.640625 L 34.234375 -41.921875 L 11.34375 -41.921875 L 11.34375 -25.109375 L 32.53125 -25.109375 L 32.53125 -21.453125 L 11.34375 -21.453125 L 11.34375 -3.71875 L 34.953125 -3.71875 L 34.953125 0 Z M 7.375 0 "/></g></g></g><g fill="#ba9672" fill-opacity="1"><g transform="translate(203.128017, 70.25702)"><g/></g></g><g fill="#ba9672" fill-opacity="1"><g transform="translate(244.598206, 70.25702)"><g><path d="M 27.71875 0.84375 C 23.101562 0.84375 19.023438 -0.15625 15.484375 -2.15625 C 11.941406 -4.15625 9.171875 -6.9375 7.171875 -10.5 C 5.171875 -14.0625 4.171875 -18.171875 4.171875 -22.828125 C 4.171875 -27.472656 5.171875 -31.578125 7.171875 -35.140625 C 9.171875 -38.703125 11.941406 -41.484375 15.484375 -43.484375 C 19.023438 -45.484375 23.101562 -46.484375 27.71875 -46.484375 C 32.363281 -46.484375 36.457031 -45.484375 40 -43.484375 C 43.539062 -41.484375 46.300781 -38.703125 48.28125 -35.140625 C 50.257812 -31.578125 51.25 -27.472656 51.25 -22.828125 C 51.25 -18.171875 50.257812 -14.0625 48.28125 -10.5 C 46.300781 -6.9375 43.539062 -4.15625 40 -2.15625 C 36.457031 -0.15625 32.363281 0.84375 27.71875 0.84375 Z M 8.21875 -22.828125 C 8.21875 -18.953125 9.039062 -15.523438 10.6875 -12.546875 C 12.34375 -9.566406 14.632812 -7.25 17.5625 -5.59375 C 20.5 -3.945312 23.882812 -3.125 27.71875 -3.125 C 31.582031 -3.125 34.976562 -3.945312 37.90625 -5.59375 C 40.84375 -7.25 43.132812 -9.566406 44.78125 -12.546875 C 46.4375 -15.523438 47.265625 -18.953125 47.265625 -22.828125 C 47.265625 -26.734375 46.4375 -30.164062 44.78125 -33.125 C 43.132812 -36.082031 40.84375 -38.382812 37.90625 -40.03125 C 34.976562 -41.6875 31.582031 -42.515625 27.71875 -42.515625 C 23.882812 -42.515625 20.5 -41.6875 17.5625 -40.03125 C 14.632812 -38.382812 12.34375 -36.082031 10.6875 -33.125 C 9.039062 -30.164062 8.21875 -26.734375 8.21875 -22.828125 Z M 8.21875 -22.828125 "/></g></g></g><g fill="#ba9672" fill-opacity="1"><g transform="translate(324.010784, 70.25702)"><g><path d="M 27.3125 0.84375 C 22.84375 0.84375 18.867188 -0.164062 15.390625 -2.1875 C 11.910156 -4.207031 9.171875 -7 7.171875 -10.5625 C 5.171875 -14.125 4.171875 -18.210938 4.171875 -22.828125 C 4.171875 -27.472656 5.171875 -31.566406 7.171875 -35.109375 C 9.171875 -38.648438 11.910156 -41.429688 15.390625 -43.453125 C 18.867188 -45.472656 22.84375 -46.484375 27.3125 -46.484375 C 30.789062 -46.484375 34.007812 -45.84375 36.96875 -44.5625 C 39.925781 -43.28125 42.46875 -41.476562 44.59375 -39.15625 C 46.726562 -36.832031 48.296875 -34.0625 49.296875 -30.84375 L 45.125 -30.84375 C 43.820312 -34.445312 41.582031 -37.289062 38.40625 -39.375 C 35.226562 -41.46875 31.554688 -42.515625 27.390625 -42.515625 C 23.691406 -42.515625 20.394531 -41.6875 17.5 -40.03125 C 14.613281 -38.382812 12.34375 -36.082031 10.6875 -33.125 C 9.039062 -30.164062 8.21875 -26.734375 8.21875 -22.828125 C 8.21875 -18.953125 9.039062 -15.523438 10.6875 -12.546875 C 12.34375 -9.566406 14.613281 -7.25 17.5 -5.59375 C 20.394531 -3.945312 23.691406 -3.125 27.390625 -3.125 C 31.648438 -3.125 35.421875 -4.210938 38.703125 -6.390625 C 41.984375 -8.566406 44.253906 -11.546875 45.515625 -15.328125 L 49.6875 -15.328125 C 48.769531 -12.066406 47.222656 -9.21875 45.046875 -6.78125 C 42.878906 -4.34375 40.285156 -2.460938 37.265625 -1.140625 C 34.242188 0.179688 30.925781 0.84375 27.3125 0.84375 Z M 27.3125 0.84375 "/></g></g></g><g fill="#ba9672" fill-opacity="1"><g transform="translate(401.597973, 70.25702)"><g><path d="M 27.3125 0.84375 C 22.84375 0.84375 18.867188 -0.164062 15.390625 -2.1875 C 11.910156 -4.207031 9.171875 -7 7.171875 -10.5625 C 5.171875 -14.125 4.171875 -18.210938 4.171875 -22.828125 C 4.171875 -27.472656 5.171875 -31.566406 7.171875 -35.109375 C 9.171875 -38.648438 11.910156 -41.429688 15.390625 -43.453125 C 18.867188 -45.472656 22.84375 -46.484375 27.3125 -46.484375 C 30.789062 -46.484375 34.007812 -45.84375 36.96875 -44.5625 C 39.925781 -43.28125 42.46875 -41.476562 44.59375 -39.15625 C 46.726562 -36.832031 48.296875 -34.0625 49.296875 -30.84375 L 45.125 -30.84375 C 43.820312 -34.445312 41.582031 -37.289062 38.40625 -39.375 C 35.226562 -41.46875 31.554688 -42.515625 27.390625 -42.515625 C 23.691406 -42.515625 20.394531 -41.6875 17.5 -40.03125 C 14.613281 -38.382812 12.34375 -36.082031 10.6875 -33.125 C 9.039062 -30.164062 8.21875 -26.734375 8.21875 -22.828125 C 8.21875 -18.953125 9.039062 -15.523438 10.6875 -12.546875 C 12.34375 -9.566406 14.613281 -7.25 17.5 -5.59375 C 20.394531 -3.945312 23.691406 -3.125 27.390625 -3.125 C 31.648438 -3.125 35.421875 -4.210938 38.703125 -6.390625 C 41.984375 -8.566406 44.253906 -11.546875 45.515625 -15.328125 L 49.6875 -15.328125 C 48.769531 -12.066406 47.222656 -9.21875 45.046875 -6.78125 C 42.878906 -4.34375 40.285156 -2.460938 37.265625 -1.140625 C 34.242188 0.179688 30.925781 0.84375 27.3125 0.84375 Z M 27.3125 0.84375 "/></g></g></g><g fill="#ba9672" fill-opacity="1"><g transform="translate(479.18513, 70.25702)"><g><path d="M 1.4375 0 L 20.34375 -45.640625 L 24.125 -45.640625 L 43.03125 0 L 38.859375 0 L 34.09375 -11.46875 L 10.375 -11.46875 L 5.671875 0 Z M 11.9375 -15.125 L 32.609375 -15.125 L 22.234375 -40.234375 Z M 11.9375 -15.125 "/></g></g></g><g fill="#ba9672" fill-opacity="1"><g transform="translate(547.71043, 70.25702)"><g><path d="M 22.03125 0.84375 C 18.5625 0.84375 15.53125 0.257812 12.9375 -0.90625 C 10.351562 -2.082031 8.34375 -3.753906 6.90625 -5.921875 C 5.476562 -8.097656 4.695312 -10.644531 4.5625 -13.5625 L 8.46875 -13.5625 C 8.6875 -10.21875 10.015625 -7.609375 12.453125 -5.734375 C 14.890625 -3.867188 18.082031 -2.9375 22.03125 -2.9375 C 25.769531 -2.9375 28.726562 -3.707031 30.90625 -5.25 C 33.082031 -6.789062 34.171875 -8.890625 34.171875 -11.546875 C 34.171875 -13.929688 33.171875 -15.875 31.171875 -17.375 C 29.171875 -18.875 25.863281 -20.125 21.25 -21.125 C 15.644531 -22.425781 11.582031 -24.097656 9.0625 -26.140625 C 6.539062 -28.191406 5.28125 -30.929688 5.28125 -34.359375 C 5.28125 -38.015625 6.671875 -40.945312 9.453125 -43.15625 C 12.234375 -45.375 16.0625 -46.484375 20.9375 -46.484375 C 25.976562 -46.484375 29.941406 -45.265625 32.828125 -42.828125 C 35.722656 -40.398438 37.253906 -36.992188 37.421875 -32.609375 L 33.515625 -32.609375 C 33.335938 -35.816406 32.148438 -38.300781 29.953125 -40.0625 C 27.765625 -41.820312 24.757812 -42.703125 20.9375 -42.703125 C 17.238281 -42.703125 14.367188 -41.941406 12.328125 -40.421875 C 10.285156 -38.898438 9.265625 -36.878906 9.265625 -34.359375 C 9.265625 -32.097656 10.226562 -30.21875 12.15625 -28.71875 C 14.09375 -27.21875 17.453125 -25.925781 22.234375 -24.84375 C 28.015625 -23.5 32.117188 -21.769531 34.546875 -19.65625 C 36.984375 -17.550781 38.203125 -14.867188 38.203125 -11.609375 C 38.203125 -7.785156 36.742188 -4.753906 33.828125 -2.515625 C 30.921875 -0.273438 26.988281 0.84375 22.03125 0.84375 Z M 22.03125 0.84375 "/></g></g></g><g fill="#ba9672" fill-opacity="1"><g transform="translate(614.540772, 70.25702)"><g><path d="M 7.375 0 L 7.375 -45.640625 L 11.34375 -45.640625 L 11.34375 0 Z M 7.375 0 "/></g></g></g><g fill="#ba9672" fill-opacity="1"><g transform="translate(657.249617, 70.25702)"><g><path d="M 27.71875 0.84375 C 23.101562 0.84375 19.023438 -0.15625 15.484375 -2.15625 C 11.941406 -4.15625 9.171875 -6.9375 7.171875 -10.5 C 5.171875 -14.0625 4.171875 -18.171875 4.171875 -22.828125 C 4.171875 -27.472656 5.171875 -31.578125 7.171875 -35.140625 C 9.171875 -38.703125 11.941406 -41.484375 15.484375 -43.484375 C 19.023438 -45.484375 23.101562 -46.484375 27.71875 -46.484375 C 32.363281 -46.484375 36.457031 -45.484375 40 -43.484375 C 43.539062 -41.484375 46.300781 -38.703125 48.28125 -35.140625 C 50.257812 -31.578125 51.25 -27.472656 51.25 -22.828125 C 51.25 -18.171875 50.257812 -14.0625 48.28125 -10.5 C 46.300781 -6.9375 43.539062 -4.15625 40 -2.15625 C 36.457031 -0.15625 32.363281 0.84375 27.71875 0.84375 Z M 8.21875 -22.828125 C 8.21875 -18.953125 9.039062 -15.523438 10.6875 -12.546875 C 12.34375 -9.566406 14.632812 -7.25 17.5625 -5.59375 C 20.5 -3.945312 23.882812 -3.125 27.71875 -3.125 C 31.582031 -3.125 34.976562 -3.945312 37.90625 -5.59375 C 40.84375 -7.25 43.132812 -9.566406 44.78125 -12.546875 C 46.4375 -15.523438 47.265625 -18.953125 47.265625 -22.828125 C 47.265625 -26.734375 46.4375 -30.164062 44.78125 -33.125 C 43.132812 -36.082031 40.84375 -38.382812 37.90625 -40.03125 C 34.976562 -41.6875 31.582031 -42.515625 27.71875 -42.515625 C 23.882812 -42.515625 20.5 -41.6875 17.5625 -40.03125 C 14.632812 -38.382812 12.34375 -36.082031 10.6875 -33.125 C 9.039062 -30.164062 8.21875 -26.734375 8.21875 -22.828125 Z M 8.21875 -22.828125 "/></g></g></g><g fill="#ba9672" fill-opacity="1"><g transform="translate(736.662226, 70.25702)"><g><path d="M 7.375 0 L 7.375 -45.640625 L 11.078125 -45.640625 L 38.859375 -6.84375 L 38.859375 -45.640625 L 42.765625 -45.640625 L 42.765625 0 L 39.0625 0 L 11.28125 -38.859375 L 11.28125 0 Z M 7.375 0 "/></g></g></g></g></g></svg>